<svg width="128" height="128" viewBox="0 0 128 128" fill="none" xmlns="http://www.w3.org/2000/svg">
<rect width="128" height="128" fill="#333333"/>
<g clip-path="url(#clip0_79_7)">
<path d="M107.688 44.108L107.276 43.188L106.6 43.94C104.968 45.796 102.888 47.22 100.58 48.084L99.944 48.328L100.208 48.948C102.194 53.712 103.213 58.8228 103.208 63.984C103.208 85.604 85.62 103.208 63.984 103.208C42.348 103.208 24.776 85.62 24.776 64C24.776 42.38 42.384 24.776 64 24.776C69.868 24.776 75.532 26.052 80.8 28.564L81.42 28.864L81.684 28.244C82.6597 25.9732 84.179 23.9772 86.108 22.432L86.896 21.796L85.996 21.328C79.1996 17.8122 71.6559 15.986 64.004 16.004C37.528 16.004 16.004 37.528 16.004 64.004C16.004 90.48 37.528 112.004 64.004 112.004C90.48 112.004 112.004 90.48 112.004 64.004C112.004 57.084 110.56 50.392 107.692 44.112L107.688 44.108ZM64 42.12C58.199 42.1264 52.6374 44.4336 48.5355 48.5355C44.4336 52.6374 42.1264 58.199 42.12 64C42.1264 69.801 44.4336 75.3626 48.5355 79.4645C52.6374 83.5664 58.199 85.8736 64 85.88C69.801 85.8736 75.3626 83.5664 79.4645 79.4645C83.5664 75.3626 85.8736 69.801 85.88 64C85.8705 58.2 83.5622 52.6403 79.461 48.539C75.3597 44.4378 69.8 42.1295 64 42.12ZM105.38 34.092C105.38 35.4021 105.122 36.6993 104.621 37.9097C104.119 39.12 103.384 40.2197 102.458 41.1461C101.532 42.0725 100.432 42.8073 99.2216 43.3086C98.0113 43.81 96.7141 44.068 95.404 44.068C94.0939 44.068 92.7967 43.81 91.5863 43.3086C90.376 42.8073 89.2763 42.0725 88.3499 41.1461C87.4235 40.2197 86.6887 39.12 86.1874 37.9097C85.686 36.6993 85.428 35.4021 85.428 34.092C85.428 31.4462 86.479 28.9088 88.3499 27.0379C90.2208 25.167 92.7582 24.116 95.404 24.116C98.0498 24.116 100.587 25.167 102.458 27.0379C104.329 28.9088 105.38 31.4462 105.38 34.092Z" fill="white"/>
</g>
<defs>
<clipPath id="clip0_79_7">
<rect width="96" height="96" fill="white" transform="translate(16 16)"/>
</clipPath>
</defs>
</svg>
