<svg width="128" height="128" viewBox="0 0 128 128" fill="none" xmlns="http://www.w3.org/2000/svg">
<rect width="128" height="128" fill="#333333"/>
<g clip-path="url(#clip0_79_14)">
<path d="M72.8792 14.1958C72.1583 14.1958 71.4875 14.35 70.8667 14.5583C72.1833 15.4333 72.9083 16.6 73.2667 17.9167C73.2958 18.0958 73.3458 18.225 73.3708 18.4042C73.4018 18.558 73.4199 18.714 73.425 18.8708C73.525 21.1417 72.8292 21.4292 72.3417 22.7708C71.5917 24.5 71.8 26.3583 72.7 27.8542C72.7824 28.0548 72.8858 28.2461 73.0083 28.425C72.0292 21.8917 77.4792 20.9125 78.4833 18.8708C78.5625 17.0875 77.0917 15.9 75.9292 15.075C75.0156 14.501 73.9581 14.1976 72.8792 14.2V14.1958ZM81.0917 15.6667C80.9917 16.2625 81.0667 16.1083 81.0417 16.4167C81.0167 16.625 81.0167 16.8833 80.9917 17.0875C80.9375 17.2958 80.8875 17.5042 80.8083 17.7083C80.7583 17.9167 80.6833 18.125 80.6 18.3292L80.3208 18.9208C80.2375 19.025 80.1917 19.1292 80.1125 19.2333L79.9583 19.4625C79.8354 19.6393 79.7062 19.8117 79.5708 19.9792C79.4167 20.1375 79.2875 20.3167 79.1042 20.4458V20.4708C78.95 20.6 78.7958 20.7542 78.6125 20.8875C78.0708 21.3 77.4542 21.6083 76.8833 21.9958C76.7042 22.1208 76.5208 22.2292 76.3667 22.3833C76.1914 22.5066 76.0269 22.6446 75.875 22.7958C75.6958 22.95 75.5667 23.1042 75.4125 23.2875C75.2833 23.4417 75.1292 23.6208 75.025 23.8042C74.8953 23.9786 74.7743 24.1594 74.6625 24.3458C74.5583 24.5542 74.4833 24.7333 74.3792 24.9375C74.3 25.1458 74.225 25.325 74.1708 25.5333C74.1025 25.7461 74.0427 25.9616 73.9917 26.1792C73.9667 26.2833 73.9667 26.4125 73.9417 26.5125C73.9125 26.6167 73.9125 26.7208 73.8875 26.825C73.8875 27.0333 73.8625 27.2625 73.8625 27.4708C73.8625 27.625 73.8625 27.7792 73.8875 27.9333C73.8875 28.1417 73.9125 28.35 73.9667 28.5792C73.9917 28.7875 74.0417 28.9958 74.0917 29.2042C74.175 29.4083 74.225 29.6125 74.3 29.8208C74.3542 29.9458 74.4292 30.0792 74.4833 30.1833L68.5417 27.8833C67.5375 27.6 66.5542 27.3417 65.5458 27.1083L63.9208 26.7208C62.3708 26.4125 60.7958 26.1792 59.2208 26.025C59.1667 26.025 59.1417 26 59.0917 26C56.4303 25.7334 53.7508 25.6985 51.0833 25.8958C49.5083 26 47.9333 26.2042 46.3583 26.4625C45.1879 26.6642 44.0247 26.906 42.8708 27.1875L41.7083 27.4958C41.325 27.65 40.9583 27.8292 40.6 27.9875L39.7458 28.375C39.6958 28.4 39.6458 28.4 39.6208 28.425C39.3583 28.5542 39.1292 28.6583 38.8958 28.7875C38.5603 28.9355 38.2322 29.0996 37.9125 29.2792C37.7333 29.3542 37.5542 29.4583 37.3958 29.5375C37.3218 29.5834 37.2453 29.6251 37.1667 29.6625C36.9333 29.7958 36.7 29.925 36.4917 30.0542C36.279 30.1717 36.0732 30.3011 35.875 30.4417C35.6917 30.5667 35.5125 30.6708 35.3583 30.8C35.3333 30.8292 35.3042 30.8292 35.2792 30.8542C35.125 30.9583 34.9458 31.0875 34.7875 31.2167L34.7375 31.2667L34.35 31.575C34.3 31.6042 34.2458 31.6542 34.1958 31.6792C34.0667 31.7833 33.9375 31.9125 33.8083 32.0125C33.7833 32.0667 33.7292 32.0958 33.7042 32.1167C33.55 32.275 33.3958 32.4042 33.2417 32.5583C33.2125 32.5583 33.2125 32.5833 33.1875 32.6083C33.0269 32.7487 32.8726 32.8961 32.725 33.05C32.6958 33.075 32.6958 33.1 32.6708 33.1C32.5352 33.2327 32.4059 33.3718 32.2833 33.5167C32.2333 33.5667 32.1583 33.6167 32.1042 33.6667C31.9658 33.8304 31.8183 33.9862 31.6625 34.1333C31.6375 34.1833 31.5875 34.2125 31.5625 34.2583C31.3542 34.4667 31.175 34.675 30.9667 34.8833L30.8917 34.9583C30.475 35.4 30.0375 35.8375 29.5708 36.225C29.1083 36.6417 28.6167 37.025 28.125 37.3625C27.1378 38.0676 26.0724 38.6563 24.95 39.1167C24.4083 39.35 23.8375 39.5583 23.2708 39.7375C22.1875 39.9708 21.075 40.4083 20.1208 40.4875C19.9125 40.4875 19.6833 40.5375 19.475 40.5625L18.8292 40.7167L18.2083 40.95C18 41.0292 17.7958 41.1333 17.5917 41.2333C17.4083 41.3625 17.2042 41.4667 17.0208 41.5958C16.837 41.7289 16.6642 41.8766 16.5042 42.0375C16.325 42.1625 16.1417 42.3458 15.9875 42.5C15.8333 42.6792 15.6792 42.8333 15.55 43.0167C15.4208 43.225 15.2667 43.4042 15.1625 43.6125C15.0268 43.8002 14.9056 43.998 14.8 44.2042C14.6958 44.4375 14.5917 44.6458 14.5167 44.875C14.4375 45.0833 14.3625 45.3167 14.2833 45.5458C14.2333 45.7542 14.1792 45.9625 14.1583 46.1708C14.1583 46.1917 14.1292 46.2208 14.1292 46.2458C14.0792 46.4792 14.0792 46.7875 14.05 46.9417C14.025 47.125 14 47.275 14 47.4583C13.9952 47.9077 14.1011 48.3513 14.3083 48.75V48.775C14.3875 48.9292 14.4917 49.0875 14.5958 49.2417C14.6958 49.3958 14.8042 49.55 14.9292 49.7042C15.0583 49.8333 15.2125 49.9917 15.3708 50.1208C15.5214 50.2719 15.6845 50.4098 15.8583 50.5333C16.4792 51.075 16.6333 51.2542 17.4333 51.6667C17.5625 51.7458 17.6917 51.7958 17.85 51.875C17.875 51.875 17.9 51.9 17.925 51.9C17.925 51.9542 17.925 51.9792 17.95 52.0292C18.0103 52.455 18.1223 52.872 18.2833 53.2708C18.3667 53.425 18.4167 53.5792 18.4917 53.7333C18.5208 53.7875 18.5458 53.8375 18.575 53.8625C18.675 54.0708 18.7792 54.25 18.8792 54.4333L19.2667 54.975C19.3958 55.1292 19.5542 55.3083 19.7083 55.4667C19.8625 55.6208 20.0167 55.75 20.2 55.9042C20.2 55.9042 20.225 55.9292 20.25 55.9292C20.4042 56.0583 20.5583 56.1875 20.7167 56.2917C20.8964 56.4177 21.0858 56.5292 21.2833 56.625C21.4625 56.7292 21.6708 56.8333 21.875 56.9125C22.0415 56.9876 22.2144 57.0476 22.3917 57.0917C22.4208 57.1167 22.4458 57.1167 22.4958 57.1417C22.6 57.1708 22.7292 57.1958 22.8292 57.2208C22.7542 58.6167 22.7292 59.9292 22.9375 60.3958C23.1667 60.9125 24.3042 59.3375 25.4375 57.5292C25.2875 59.3125 25.1833 61.4042 25.4375 62.025C25.725 62.6708 27.2708 60.6542 28.6167 58.4333C46.9292 54.2 63.6375 66.85 65.3917 84.725C65.0583 81.9333 61.6208 80.3875 60.0458 80.775C59.2708 82.6833 57.9542 85.1375 55.8375 86.6625C56.0167 84.9542 55.9417 83.2042 55.5792 81.4958C55.0008 83.8738 53.9069 86.0956 52.375 88.0042C49.925 88.1833 47.4708 86.9958 46.1792 85.2125C46.075 85.1375 46.05 84.9833 45.9708 84.8792C45.8958 84.7 45.8167 84.5167 45.7625 84.3375C45.6875 84.1645 45.6357 83.9824 45.6083 83.7958C45.5833 83.6125 45.5833 83.4333 45.5833 83.225V82.8375C45.6142 82.6542 45.6573 82.4733 45.7125 82.2958C45.7667 82.1167 45.8167 81.9375 45.8958 81.7542C45.9958 81.575 46.075 81.3917 46.2042 81.2125C46.6417 79.9708 46.6417 78.9625 45.8417 78.3708C45.6863 78.2694 45.5217 78.1829 45.35 78.1125C45.25 78.0875 45.1208 78.0375 45.0167 78.0083L44.8083 77.9333C44.6315 77.8761 44.4503 77.8329 44.2667 77.8042C44.0907 77.7527 43.9084 77.726 43.725 77.725C43.5375 77.6956 43.3481 77.6789 43.1583 77.675C43.0292 77.675 42.9 77.7 42.7708 77.7C42.5777 77.6989 42.3855 77.7256 42.2 77.7792C42.0208 77.8042 41.8417 77.8292 41.6583 77.8792C41.474 77.9286 41.2931 77.9898 41.1167 78.0625C40.9375 78.1375 40.7833 78.2167 40.6 78.2958C40.4458 78.3708 40.2917 78.475 40.1083 78.5542C34.0917 82.4792 37.6833 91.6708 41.7875 94.3333C40.2375 94.6167 38.6625 94.95 38.225 95.2875L38.1708 95.3375C39.2833 96.0083 40.4458 96.5792 41.6583 97.0708C43.3125 97.6125 45.0667 98.1 45.8417 98.3083V98.3333C47.9814 98.7727 50.1695 98.9296 52.35 98.8C63.7917 98 73.1667 89.2958 74.8708 77.8292L75.025 78.5C75.1042 78.9667 75.2042 79.4583 75.2583 79.9458V79.9708C75.3083 80.2042 75.3333 80.4375 75.3625 80.6458V80.7458C75.3875 80.9792 75.4125 81.2125 75.4125 81.4208C75.4375 81.7042 75.4625 81.9875 75.4625 82.2708V82.6875C75.4625 82.8125 75.4917 82.9667 75.4917 83.0958C75.4917 83.2542 75.4625 83.4083 75.4625 83.5625V83.925C75.4625 84.1042 75.4375 84.2583 75.4375 84.4417C75.4375 84.5458 75.4375 84.65 75.4125 84.775C75.4125 84.9583 75.3875 85.1375 75.3875 85.3458C75.3625 85.4208 75.3625 85.5 75.3625 85.575L75.2792 86.1708C75.2792 86.25 75.2792 86.325 75.2583 86.4042C75.2292 86.6625 75.1792 86.8958 75.1542 87.1542V87.2042L75 87.9292V88.0042L74.8458 88.7C74.8458 88.7292 74.8167 88.7833 74.8167 88.8042C74.7692 89.0404 74.7094 89.2741 74.6375 89.5042V89.5792C74.5583 89.8375 74.4833 90.0708 74.4292 90.3042C74.4042 90.3292 74.4042 90.3542 74.4042 90.3542L74.1708 91.1292C74.0708 91.3875 73.9917 91.6208 73.8875 91.8792C73.7833 92.1375 73.7083 92.3958 73.6042 92.6292C73.5 92.8875 73.3958 93.1167 73.2958 93.3792H73.2667C73.1667 93.6083 73.0583 93.8667 72.9333 94.1C72.9116 94.1617 72.8852 94.2216 72.8542 94.2792C72.8292 94.3042 72.8292 94.3333 72.8042 94.3583C71.0962 97.7777 68.6102 100.749 65.5458 103.033C65.3375 103.162 65.1333 103.321 64.925 103.475C64.875 103.525 64.8 103.55 64.7458 103.6C64.5611 103.737 64.3722 103.867 64.1792 103.992L64.2542 104.146H64.2833L65.3667 103.992H65.3917C66.0625 103.887 66.7333 103.758 67.4042 103.629C67.5875 103.604 67.7917 103.55 67.975 103.5L68.3375 103.421C68.5167 103.396 68.6958 103.346 68.8792 103.321C69.0333 103.267 69.1875 103.237 69.3417 103.192C71.925 102.567 74.4292 101.717 76.8333 100.712C72.6827 106.366 67.1624 110.871 60.7917 113.804C63.7667 113.596 66.7333 113.108 69.6 112.279C79.9759 109.229 88.7393 102.226 94.0042 92.7792C92.9408 98.7594 90.569 104.431 87.0583 109.387C89.5613 107.737 91.874 105.814 93.9542 103.654C99.7348 97.6191 103.53 89.9594 104.829 81.7042C105.704 85.7875 105.963 89.9958 105.579 94.15C124.221 68.1458 107.125 41.1833 99.9708 34.0833C99.9458 34.0292 99.9208 34.0042 99.9208 33.9542C99.8958 33.9792 99.8958 33.9792 99.8958 34.0042C99.8958 33.9792 99.8958 33.9792 99.8667 33.9542C99.8667 34.2625 99.8417 34.5708 99.8167 34.8833C99.7451 35.4618 99.6589 36.0384 99.5583 36.6125C99.4333 37.1792 99.275 37.75 99.1208 38.3208C98.9375 38.8625 98.7333 39.4292 98.4958 39.9708C98.2598 40.5058 98.0026 41.0312 97.725 41.5458C97.1484 42.5582 96.4833 43.5175 95.7375 44.4125C95.35 44.875 94.9375 45.2875 94.5208 45.7042C94.2773 45.9268 94.0272 46.1422 93.7708 46.35L93.1792 46.8667C92.7181 47.2305 92.2353 47.5659 91.7333 47.8708C91.2397 48.1887 90.7308 48.4821 90.2083 48.75C89.6667 49.0083 89.125 49.2417 88.5833 49.475C87.4801 49.8946 86.3386 50.2058 85.175 50.4042C84.5792 50.5083 83.9875 50.5583 83.4167 50.6125C83.0048 50.6416 82.5921 50.6583 82.1792 50.6625C81.5918 50.6544 81.0051 50.6196 80.4208 50.5583C79.8309 50.512 79.2449 50.4257 78.6667 50.3C78.081 50.1937 77.5032 50.0475 76.9375 49.8625H76.9083C77.4792 49.8083 78.0458 49.7583 78.6167 49.6542C79.7795 49.4526 80.9207 49.1415 82.025 48.725C82.5917 48.5167 83.1333 48.2583 83.65 48C84.1917 47.7417 84.6833 47.4583 85.2 47.15C85.6917 46.8167 86.1792 46.4792 86.6458 46.1167C87.1125 45.7542 87.55 45.3667 87.9625 44.9542C88.4 44.5667 88.7875 44.1292 89.175 43.6875C89.5625 43.225 89.925 42.7583 90.2583 42.2958C90.3125 42.2167 90.3667 42.1125 90.4167 42.0375C90.675 41.6208 90.9333 41.2083 91.1667 40.7958C91.736 39.768 92.2022 38.6863 92.5583 37.5667C92.7417 37.025 92.8708 36.4583 93 35.8875C93.1042 35.2958 93.2083 34.7292 93.2583 34.1583C93.3083 33.5667 93.3625 32.9708 93.3625 32.4042C93.3625 31.9875 93.3333 31.575 93.3083 31.1625C93.2568 30.5841 93.1873 30.0074 93.1 29.4333C92.9996 28.8512 92.8717 28.2742 92.7167 27.7042C92.5333 27.1625 92.3542 26.5917 92.1458 26.05C91.9375 25.5083 91.6833 24.9667 91.425 24.45C91.1375 23.9333 90.8542 23.4167 90.5458 22.925C90.216 22.4423 89.8714 21.9698 89.5125 21.5083C89.125 21.0667 88.7375 20.625 88.325 20.1875C88.1076 19.9658 87.8839 19.7505 87.6542 19.5417C86.4875 18.6375 85.2792 17.7875 84.0625 17.0125C83.8956 16.9161 83.7231 16.8298 83.5458 16.7542C82.7798 16.2851 81.9544 15.9166 81.0917 15.6667Z" fill="white"/>
</g>
<defs>
<clipPath id="clip0_79_14">
<rect width="100" height="100" fill="white" transform="translate(14 14)"/>
</clipPath>
</defs>
</svg>
