<svg width="128" height="128" viewBox="0 0 128 128" fill="none" xmlns="http://www.w3.org/2000/svg">
<rect width="128" height="128" fill="#333333"/>
<g clip-path="url(#clip0_79_42)">
<path d="M104.862 90.1867L70.47 17.1521C69.6075 15.3263 67.8075 14.1217 65.7675 14.01C63.6746 13.8879 61.7996 14.8975 60.7417 16.6154L23.4417 77.0296C22.2863 78.9121 22.3092 81.2342 23.5075 83.0942L41.7404 111.338C42.8271 113.024 44.71 114 46.6667 114C47.2217 114 47.7792 113.922 48.3279 113.76L101.253 98.1063C102.874 97.6267 104.199 96.4796 104.893 94.9592C105.587 93.4388 105.573 91.6975 104.862 90.1867ZM97.1613 93.3196L52.2558 106.601C50.8842 107.007 49.5692 105.82 49.8575 104.437L65.8996 27.6092C66.1996 26.1725 68.1854 25.9442 68.8121 27.2746L98.5154 90.3496C99.0754 91.5396 98.4363 92.9429 97.1613 93.3196Z" fill="white"/>
</g>
<defs>
<clipPath id="clip0_79_42">
<rect width="100" height="100" fill="white" transform="translate(14 14)"/>
</clipPath>
</defs>
</svg>
