<svg width="128" height="128" viewBox="0 0 128 128" fill="none" xmlns="http://www.w3.org/2000/svg">
<rect width="128" height="128" fill="#333333"/>
<g clip-path="url(#clip0_52_11)">
<mask id="mask0_52_11" style="mask-type:luminance" maskUnits="userSpaceOnUse" x="19" y="16" width="92" height="97">
<path d="M19 16H110.224V112.542H19V16Z" fill="white"/>
</mask>
<g mask="url(#mask0_52_11)">
<path d="M109.846 32.0325L106.566 83.5445L75.2017 16L109.846 32.0325ZM88.1223 98.6402L64.4233 112.163L40.724 98.6402L45.5441 86.9587H83.3022L88.1223 98.6402ZM64.4233 41.6388L76.8417 71.8298H52.0046L64.4233 41.6388ZM22.2468 83.5445L19 32.0325L53.6446 16L22.2468 83.5445Z" fill="url(#paint0_linear_52_11)"/>
<path d="M109.846 32.0325L106.566 83.5445L75.2017 16L109.846 32.0325ZM88.1223 98.6402L64.4233 112.163L40.724 98.6402L45.5441 86.9587H83.3022L88.1223 98.6402ZM64.4233 41.6388L76.8417 71.8298H52.0046L64.4233 41.6388ZM22.2468 83.5445L19 32.0325L53.6446 16L22.2468 83.5445Z" fill="url(#paint1_linear_52_11)"/>
</g>
</g>
<defs>
<linearGradient id="paint0_linear_52_11" x1="39.0484" y1="103.44" x2="111.381" y2="69.0661" gradientUnits="userSpaceOnUse">
<stop stop-color="#E40035"/>
<stop offset="0.24" stop-color="#F60A48"/>
<stop offset="0.352" stop-color="#F20755"/>
<stop offset="0.494" stop-color="#DC087D"/>
<stop offset="0.745" stop-color="#9717E7"/>
<stop offset="1" stop-color="#6C00F5"/>
</linearGradient>
<linearGradient id="paint1_linear_52_11" x1="35.7823" y1="27.5948" x2="83.1189" y2="81.5928" gradientUnits="userSpaceOnUse">
<stop stop-color="#FF31D9"/>
<stop offset="1" stop-color="#FF5BE1" stop-opacity="0"/>
</linearGradient>
<clipPath id="clip0_52_11">
<rect width="90.8475" height="96.1614" fill="white" transform="translate(19 16)"/>
</clipPath>
</defs>
</svg>
