<svg width="128" height="128" viewBox="0 0 128 128" fill="none" xmlns="http://www.w3.org/2000/svg">
<rect width="128" height="128" fill="#333333"/>
<g clip-path="url(#clip0_52_118)">
<path d="M40.44 55.6537C40.44 56.9902 40.5877 58.0721 40.8408 58.8783C41.1362 59.6632 41.4949 60.533 41.9801 61.4876C42.17 61.7846 42.2333 62.0604 42.2333 62.3149C42.2333 62.6756 42.0223 63.0362 41.5582 63.3969L39.3007 64.9243C38.9842 65.1364 38.6467 65.2425 38.3724 65.2425C38.0137 65.2425 37.6551 65.0516 37.2964 64.7334C36.7901 64.1818 36.3681 63.609 36.0094 63.0362C35.6508 62.421 35.2921 61.7422 34.8912 60.9148C32.0852 64.2454 28.5619 65.9001 24.3212 65.9001C21.3042 65.9001 18.8991 65.0304 17.1268 63.2908C15.3757 61.5512 14.4685 59.2389 14.4685 56.3538C14.4685 53.2777 15.5445 50.7957 17.7387 48.9076C19.9329 47.0196 22.8233 46.0862 26.5365 46.0862C27.7602 46.0862 29.0049 46.1922 30.3552 46.3832C31.7055 46.5741 33.0557 46.8499 34.4904 47.1681V44.5375C34.4904 41.8009 33.9207 39.8704 32.8026 38.7673C31.6633 37.643 29.7223 37.1126 26.9373 37.1126C25.6715 37.1126 24.3845 37.2611 23.0553 37.5793C21.7262 37.8975 20.4392 38.3006 19.1733 38.8097C18.6037 39.0643 18.1606 39.2128 17.9075 39.2764C17.6543 39.3401 17.4855 39.3825 17.3378 39.3825C16.8315 39.3825 16.5783 39.0219 16.5783 38.2582V36.4974C16.5783 35.9246 16.6416 35.4791 16.8315 35.2245C17.0213 34.97 17.3378 34.7154 17.8442 34.4608C19.11 33.8032 20.608 33.2728 22.3802 32.8274C24.1313 32.3606 26.009 32.1485 27.9922 32.1485C32.2751 32.1485 35.3976 33.1243 37.4019 35.076C39.3851 37.0277 40.3767 39.9977 40.3767 43.9648V55.6749H40.44V55.6537ZM25.8614 61.1482C27.0428 61.1482 28.2665 60.936 29.5535 60.4905C30.8405 60.0662 32.0008 59.2601 32.9713 58.1782C33.541 57.4993 33.984 56.7356 34.195 55.8659C34.406 54.9961 34.5537 53.9566 34.5537 52.7262V51.1988C33.5199 50.9442 32.4017 50.732 31.2413 50.5835C30.102 50.4351 28.9838 50.3714 27.8657 50.3714C25.4605 50.3714 23.6883 50.8381 22.5068 51.814C21.3253 52.7898 20.7557 54.1687 20.7557 55.9719C20.7557 57.6691 21.1776 58.9419 22.0848 59.8117C22.9498 60.7027 24.1946 61.1482 25.8614 61.1482ZM54.7021 65.0516C54.0481 65.0516 53.6262 64.9455 53.3308 64.6909C53.0354 64.4788 52.7822 63.9696 52.5713 63.2908L44.1321 35.373C43.9211 34.6518 43.8156 34.1851 43.8156 33.9305C43.8156 33.3577 44.111 33.0183 44.6807 33.0183H48.204C48.8791 33.0183 49.3433 33.1243 49.5965 33.3789C49.8918 33.5911 50.1028 34.1002 50.3138 34.779L56.3478 58.6873L61.9598 34.779C62.1497 34.0578 62.3607 33.5911 62.6349 33.3789C62.9303 33.1668 63.4156 33.0183 64.0696 33.0183H66.96C67.6351 33.0183 68.0993 33.1243 68.3947 33.3789C68.69 33.5911 68.9432 34.1002 69.0698 34.779L74.7451 58.9843L80.969 34.779C81.18 34.0578 81.4331 33.5911 81.6863 33.3789C81.9817 33.1668 82.4458 33.0183 83.0788 33.0183H86.4122C86.9819 33.0183 87.3194 33.3153 87.3194 33.9305C87.3194 34.1214 87.2773 34.2911 87.2562 34.5033C87.214 34.7154 87.1507 35.0124 87.003 35.4155L78.3529 63.3332C78.1419 64.0545 77.8887 64.5212 77.5933 64.7334C77.298 64.9455 76.8338 65.094 76.222 65.094H73.1417C72.4665 65.094 72.0024 64.9879 71.707 64.7334C71.4117 64.4788 71.1585 64.0121 71.0319 63.2908L65.4621 39.9977L59.9344 63.2696C59.7445 63.9909 59.5336 64.4576 59.2593 64.7121C58.9639 64.9667 58.4787 65.0728 57.8246 65.0728H54.7021V65.0516ZM100.864 66.0274C98.9866 66.0274 97.13 65.8153 95.3366 65.3698C93.5433 64.9455 92.1298 64.4576 91.2015 63.9272C90.6318 63.609 90.231 63.2484 90.0833 62.9089C89.9356 62.5695 89.8723 62.2301 89.8723 61.8907V60.045C89.8723 59.2813 90.1677 58.9207 90.6951 58.9207C90.9061 58.9207 91.1171 58.9631 91.3491 59.0268C91.5601 59.0904 91.8977 59.2389 92.2563 59.3874C93.48 59.939 94.8092 60.3632 96.2017 60.6602C97.6363 60.9572 99.0499 61.0845 100.485 61.0845C102.742 61.0845 104.514 60.6815 105.738 59.8965C106.962 59.1116 107.616 57.9448 107.616 56.4599C107.616 55.4416 107.299 54.6142 106.645 53.9354C105.991 53.2565 104.767 52.6413 103.016 52.0473L97.8051 50.4138C95.189 49.5865 93.248 48.3561 92.0665 46.7226C90.885 45.1315 90.2732 43.3708 90.2732 41.4827C90.2732 39.9553 90.5896 38.6188 91.2437 37.4732C91.8977 36.3277 92.7627 35.3094 93.8387 34.5033C94.9147 33.6759 96.1384 33.0607 97.573 32.6152C99.0077 32.1909 100.527 32 102.109 32C102.89 32 103.734 32.0424 104.514 32.1485C105.337 32.2546 106.097 32.4031 106.856 32.5516C107.573 32.7425 108.249 32.9122 108.903 33.1243C109.557 33.3365 110.042 33.5486 110.422 33.782C110.928 34.079 111.287 34.3548 111.498 34.6942C111.709 34.9912 111.814 35.373 111.814 35.8822V37.5793C111.814 38.343 111.519 38.7249 110.991 38.7249C110.696 38.7249 110.232 38.5764 109.62 38.3006C107.573 37.3672 105.274 36.9005 102.721 36.9005C100.674 36.9005 99.0499 37.2187 97.9528 37.9187C96.8557 38.6188 96.2649 39.6583 96.2649 41.1433C96.2649 42.1616 96.6236 43.0313 97.3409 43.7102C98.0583 44.389 99.3874 45.0891 101.286 45.7043L106.392 47.3378C108.987 48.1651 110.844 49.3319 111.962 50.7957C113.08 52.2595 113.607 53.9778 113.607 55.8446C113.607 57.3933 113.291 58.8146 112.679 60.045C112.025 61.2755 111.16 62.3574 110.063 63.2272C108.945 64.1394 107.616 64.7758 106.075 65.2425C104.388 65.7728 102.7 66.0274 100.864 66.0274Z" fill="white"/>
<path fill-rule="evenodd" clip-rule="evenodd" d="M107.658 83.5715C95.843 92.3541 78.6694 97 63.9009 97C43.2039 97 24.5533 89.2993 10.4811 76.5072C9.36287 75.4889 10.3756 74.1312 11.7047 74.9161C26.9374 83.8048 45.7356 89.1932 65.1667 89.1932C78.2896 89.1932 92.6784 86.4566 105.949 80.8137C107.911 79.9227 109.599 82.1289 107.658 83.5715Z" fill="#FF9900"/>
<path fill-rule="evenodd" clip-rule="evenodd" d="M112.574 77.9498C111.055 75.9981 102.594 77.0163 98.7334 77.483C97.5942 77.6315 97.4043 76.6133 98.4381 75.8496C105.189 71.0764 116.287 72.4553 117.595 74.0464C118.882 75.6798 117.236 86.8385 110.907 92.1844C109.936 93.0118 109.008 92.5875 109.43 91.5056C110.886 87.9204 114.093 79.859 112.574 77.9498Z" fill="#FF9900"/>
</g>
<defs>
<clipPath id="clip0_52_118">
<rect width="108" height="65" fill="white" transform="translate(10 32)"/>
</clipPath>
</defs>
</svg>
