<svg width="128" height="128" viewBox="0 0 128 128" fill="none" xmlns="http://www.w3.org/2000/svg">
<rect width="128" height="128" fill="#333333"/>
<g clip-path="url(#clip0_52_25)">
<path d="M119.816 54.8774C117.298 53.1255 111.495 52.4686 106.984 53.3445C106.458 48.9647 104.027 45.1324 99.8228 41.7381L97.4139 39.9862L95.7277 42.5046C93.6254 45.7894 92.5743 50.3882 92.8808 54.768C92.9903 56.3009 93.5159 59.0382 95.0926 61.4471C93.6254 62.3231 90.5596 63.418 86.574 63.418H10.5191L10.3001 64.294C9.55554 68.6738 9.55554 82.3606 18.1837 92.872C24.7096 100.865 34.3889 104.916 47.1121 104.916C74.6829 104.916 95.0926 91.6676 104.662 67.6883C108.451 67.7978 116.554 67.6883 120.649 59.4762C120.758 59.2572 120.955 58.8192 121.7 57.1768L122.116 56.3009L119.816 54.8774ZM71.3323 24H59.7697V34.9494H71.3323V24ZM71.3323 37.1393H59.7697V48.0888H71.3323V37.1393ZM57.6455 37.1393H46.0829V48.0888H57.6455V37.1393ZM43.9806 37.1393H32.418V48.0888H43.9806V37.1393ZM30.2938 50.2787H18.7312V61.2281H30.2938V50.2787ZM43.9806 50.2787H32.418V61.2281H43.9806V50.2787ZM57.6455 50.2787H46.0829V61.2281H57.6455V50.2787ZM71.3323 50.2787H59.7697V61.2281H71.3323V50.2787ZM84.9972 50.2787H73.4346V61.2281H84.9972V50.2787Z" fill="#2396ED"/>
</g>
<defs>
<clipPath id="clip0_52_25">
<rect width="112.116" height="80.9164" fill="white" transform="translate(10 24)"/>
</clipPath>
</defs>
</svg>
