<svg width="128" height="128" viewBox="0 0 128 128" fill="none" xmlns="http://www.w3.org/2000/svg">
<rect width="128" height="128" fill="#333333"/>
<g clip-path="url(#clip0_51_34)">
<path d="M75.593 60.0047H84.7753C84.9883 60.0047 85.1927 59.9203 85.3437 59.7701C85.4947 59.6199 85.5801 59.416 85.5813 59.203V51.026C85.5813 50.8122 85.4964 50.6072 85.3452 50.4561C85.1941 50.3049 84.9891 50.22 84.7753 50.22H75.593C75.3803 50.22 75.1764 50.3045 75.0261 50.4548C74.8757 50.6051 74.7913 50.8091 74.7913 51.0217V59.203C74.7913 59.645 75.151 60.0047 75.593 60.0047ZM62.7923 36.4747H71.9703C72.1841 36.4747 72.3891 36.3897 72.5402 36.2386C72.6914 36.0874 72.7763 35.8824 72.7763 35.6687V27.4873C72.7751 27.2743 72.6897 27.0704 72.5387 26.9202C72.3877 26.77 72.1833 26.6857 71.9703 26.6857H62.7923C62.5797 26.6857 62.3758 26.7701 62.2254 26.9205C62.0751 27.0708 61.9906 27.2747 61.9906 27.4873V35.6687C61.9906 36.1107 62.346 36.4747 62.7923 36.4747ZM62.7923 48.2397H71.9703C72.1837 48.2385 72.3881 48.1532 72.539 48.0023C72.6899 47.8514 72.7752 47.6471 72.7763 47.4337V39.2567C72.7751 39.0437 72.6897 38.8398 72.5387 38.6895C72.3877 38.5393 72.1833 38.455 71.9703 38.455H62.7923C62.5797 38.455 62.3758 38.5395 62.2254 38.6898C62.0751 38.8401 61.9906 39.0441 61.9906 39.2567V47.4337C61.9906 47.8757 62.346 48.2353 62.7923 48.2397ZM50.0956 48.2397H59.2823C59.4945 48.2374 59.6973 48.1515 59.8466 48.0005C59.9959 47.8496 60.0796 47.6459 60.0796 47.4337V39.2567C60.0796 39.0441 59.9952 38.8401 59.8448 38.6898C59.6945 38.5395 59.4906 38.455 59.278 38.455H50.1C49.8873 38.455 49.6834 38.5395 49.5331 38.6898C49.3827 38.8401 49.2983 39.0441 49.2983 39.2567V47.4337C49.2983 47.8757 49.658 48.2353 50.1 48.2397M37.256 48.2397H46.4383C46.6513 48.2385 46.8552 48.1531 47.0054 48.0021C47.1556 47.851 47.24 47.6467 47.24 47.4337V39.2567C47.24 39.0441 47.1555 38.8401 47.0051 38.6898C46.8548 38.5395 46.6509 38.455 46.4383 38.455H37.256C37.0429 38.455 36.8386 38.5393 36.6876 38.6895C36.5365 38.8398 36.4511 39.0437 36.45 39.2567V47.4337C36.45 47.8757 36.814 48.2353 37.256 48.2397ZM62.7923 60.0047H71.9703C72.1833 60.0047 72.3877 59.9203 72.5387 59.7701C72.6897 59.6199 72.7751 59.416 72.7763 59.203V51.026C72.7763 50.8122 72.6914 50.6072 72.5402 50.4561C72.3891 50.3049 72.1841 50.22 71.9703 50.22H62.7923C62.5797 50.22 62.3758 50.3045 62.2254 50.4548C62.0751 50.6051 61.9906 50.8091 61.9906 51.0217V59.203C61.9906 59.645 62.346 60.0047 62.7923 60.0047ZM50.0956 60.0047H59.2823C59.4941 60.0035 59.6969 59.9186 59.8464 59.7683C59.9958 59.6181 60.0796 59.4149 60.0796 59.203V51.026C60.0802 50.9207 60.06 50.8164 60.0203 50.7189C59.9805 50.6214 59.9219 50.5327 59.8479 50.4579C59.7738 50.383 59.6858 50.3235 59.5887 50.2827C59.4917 50.2419 59.3876 50.2206 59.2823 50.22H50.0956C49.8838 50.2211 49.681 50.3061 49.5316 50.4563C49.3821 50.6065 49.2983 50.8098 49.2983 51.0217V59.203C49.2983 59.645 49.658 60.0047 50.1 60.0047M37.256 60.0047H46.4383C46.6509 60.0047 46.8548 59.9202 47.0051 59.7699C47.1555 59.6195 47.24 59.4156 47.24 59.203V51.026C47.2405 50.9207 47.2204 50.8164 47.1806 50.7189C47.1408 50.6214 47.0823 50.5327 47.0082 50.4579C46.9342 50.383 46.8461 50.3235 46.7491 50.2827C46.652 50.2419 46.5479 50.2206 46.4426 50.22H37.256C37.0422 50.22 36.8372 50.3049 36.686 50.4561C36.5349 50.6072 36.45 50.8122 36.45 51.026V59.203C36.45 59.645 36.814 60.0047 37.256 60.0047ZM24.6026 60.0047H33.7893C34.0012 60.0035 34.2039 59.9186 34.3534 59.7683C34.5028 59.6181 34.5866 59.4149 34.5866 59.203V51.026C34.5872 50.9207 34.567 50.8164 34.5273 50.7189C34.4875 50.6214 34.4289 50.5327 34.3549 50.4579C34.2808 50.383 34.1928 50.3235 34.0957 50.2827C33.9987 50.2419 33.8946 50.2206 33.7893 50.22H24.6026C24.3908 50.2211 24.188 50.3061 24.0386 50.4563C23.8891 50.6065 23.8053 50.8098 23.8053 51.0217V59.203C23.8053 59.645 24.1563 60.0047 24.6026 60.0047ZM117.973 54.8567C117.691 54.6357 115.061 52.6467 109.506 52.6467C108.041 52.651 106.576 52.7767 105.129 53.0237C104.054 45.657 97.966 42.0603 97.693 41.9043L96.2023 41.042L95.223 42.459C93.9923 44.357 93.0996 46.4543 92.571 48.6557C91.5743 52.859 92.181 56.811 94.3173 60.1867C91.739 61.6253 87.6006 61.9763 86.76 62.0067H18.2543C17.3942 62.0078 16.5695 62.3494 15.9605 62.9568C15.3515 63.5641 15.0077 64.3879 15.0043 65.248C14.924 71.249 15.9403 77.2141 18.003 82.85C20.3646 89.038 23.8746 93.5967 28.4463 96.3873C33.5596 99.5203 41.8796 101.314 51.3046 101.314C55.5643 101.327 59.811 100.942 64.0013 100.162C69.8203 99.0927 75.4196 97.0583 80.5676 94.1427C84.8143 91.6857 88.6276 88.5613 91.8776 84.8867C97.303 78.742 100.536 71.8997 102.941 65.82H103.898C109.844 65.82 113.497 63.441 115.512 61.4477C116.851 60.178 117.895 58.631 118.575 56.915L119 55.667L117.973 54.8567Z" fill="white"/>
</g>
<defs>
<clipPath id="clip0_51_34">
<rect width="104" height="104" fill="white" transform="translate(15 12)"/>
</clipPath>
</defs>
</svg>
