<svg width="128" height="128" viewBox="0 0 128 128" fill="none" xmlns="http://www.w3.org/2000/svg">
<rect width="128" height="128" fill="#333333"/>
<path d="M119.245 56.9242C116.597 55.147 109.64 54.388 104.581 55.7465C104.308 50.7226 101.711 46.4889 96.9581 42.795L95.1987 41.6173L94.0263 43.3831C91.7213 46.872 90.7502 51.52 91.0944 55.7451C91.3657 58.3482 92.274 61.2746 94.0263 63.3978C87.4428 67.2056 81.3748 66.3412 54.501 66.3412H13.0093C12.8879 72.3919 13.8633 84.0319 21.2865 93.5073C22.1062 94.554 23.0059 95.5665 23.9813 96.5419C30.0164 102.568 39.1348 106.987 52.7702 107C73.5717 107.018 91.3943 95.8071 102.235 68.698C105.802 68.7564 115.219 69.336 119.828 60.4558C119.94 60.3062 121 58.1004 121 58.1004L119.243 56.9228L119.245 56.9242ZM40.0873 51.3904H28.4198V63.0247H40.0873V51.3904ZM55.1608 51.3904H43.4933V63.0247H55.1608V51.3904ZM70.2343 51.3904H58.5668V63.0247H70.2343V51.3904ZM85.3078 51.3904H73.6403V63.0247H85.3078V51.3904ZM25.0138 51.3904H13.3463V63.0247H25.0138V51.3904ZM40.0873 36.6959H28.4198V48.3302H40.0873V36.6959ZM55.1608 36.6959H43.4933V48.3302H55.1608V36.6959ZM70.2343 36.6959H58.5668V48.3302H70.2343V36.6959ZM70.2343 22H58.5668V33.6343H70.2343V22Z" fill="white"/>
</svg>
