<svg width="128" height="128" viewBox="0 0 128 128" fill="none" xmlns="http://www.w3.org/2000/svg">
<rect width="128" height="128" fill="#333333"/>
<g clip-path="url(#clip0_79_56)">
<path d="M74.9235 59.851H84.459C84.6802 59.851 84.8924 59.7634 85.0492 59.6074C85.2061 59.4514 85.2948 59.2397 85.296 59.0185V50.527C85.296 50.305 85.2078 50.0921 85.0508 49.9352C84.8938 49.7782 84.6809 49.69 84.459 49.69H74.9235C74.7027 49.69 74.4909 49.7777 74.3348 49.9338C74.1787 50.09 74.091 50.3017 74.091 50.5225V59.0185C74.091 59.4775 74.4645 59.851 74.9235 59.851ZM61.6305 35.416H71.1615C71.3834 35.416 71.5963 35.3278 71.7533 35.1708C71.9103 35.0139 71.9985 34.801 71.9985 34.579V26.083C71.9973 25.8618 71.9086 25.6501 71.7517 25.4941C71.5949 25.3381 71.3827 25.2505 71.1615 25.2505H61.6305C61.4097 25.2505 61.1979 25.3382 61.0418 25.4943C60.8857 25.6505 60.798 25.8622 60.798 26.083V34.579C60.798 35.038 61.167 35.416 61.6305 35.416ZM61.6305 47.6335H71.1615C71.3831 47.6323 71.5953 47.5438 71.752 47.387C71.9087 47.2303 71.9973 47.0181 71.9985 46.7965V38.305C71.9973 38.0838 71.9086 37.8721 71.7517 37.7161C71.5949 37.5601 71.3827 37.4725 71.1615 37.4725H61.6305C61.4097 37.4725 61.1979 37.5602 61.0418 37.7163C60.8857 37.8725 60.798 38.0842 60.798 38.305V46.7965C60.798 47.2555 61.167 47.629 61.6305 47.6335ZM48.4455 47.6335H57.9855C58.2059 47.6311 58.4165 47.5419 58.5715 47.3852C58.7265 47.2285 58.8135 47.0169 58.8135 46.7965V38.305C58.8135 38.0842 58.7257 37.8725 58.5696 37.7163C58.4135 37.5602 58.2017 37.4725 57.981 37.4725H48.45C48.2292 37.4725 48.0174 37.5602 47.8613 37.7163C47.7052 37.8725 47.6175 38.0842 47.6175 38.305V46.7965C47.6175 47.2555 47.991 47.629 48.45 47.6335M35.112 47.6335H44.6475C44.8687 47.6323 45.0804 47.5436 45.2364 47.3868C45.3924 47.2299 45.48 47.0177 45.48 46.7965V38.305C45.48 38.0842 45.3922 37.8725 45.2361 37.7163C45.08 37.5602 44.8682 37.4725 44.6475 37.4725H35.112C34.8907 37.4725 34.6785 37.5601 34.5217 37.7161C34.3649 37.8721 34.2761 38.0838 34.275 38.305V46.7965C34.275 47.2555 34.653 47.629 35.112 47.6335ZM61.6305 59.851H71.1615C71.3827 59.851 71.5949 59.7634 71.7517 59.6074C71.9086 59.4514 71.9973 59.2397 71.9985 59.0185V50.527C71.9985 50.305 71.9103 50.0921 71.7533 49.9352C71.5963 49.7782 71.3834 49.69 71.1615 49.69H61.6305C61.4097 49.69 61.1979 49.7777 61.0418 49.9338C60.8857 50.09 60.798 50.3017 60.798 50.5225V59.0185C60.798 59.4775 61.167 59.851 61.6305 59.851ZM48.4455 59.851H57.9855C58.2055 59.8498 58.4161 59.7616 58.5712 59.6056C58.7264 59.4496 58.8135 59.2385 58.8135 59.0185V50.527C58.814 50.4177 58.7931 50.3093 58.7518 50.2081C58.7105 50.1068 58.6497 50.0147 58.5728 49.937C58.4959 49.8593 58.4045 49.7975 58.3037 49.7551C58.2029 49.7127 58.0948 49.6906 57.9855 49.69H48.4455C48.2254 49.6912 48.0148 49.7794 47.8597 49.9354C47.7045 50.0914 47.6175 50.3025 47.6175 50.5225V59.0185C47.6175 59.4775 47.991 59.851 48.45 59.851M35.112 59.851H44.6475C44.8682 59.851 45.08 59.7633 45.2361 59.6072C45.3922 59.451 45.48 59.2393 45.48 59.0185V50.527C45.4805 50.4177 45.4596 50.3093 45.4183 50.2081C45.377 50.1068 45.3162 50.0147 45.2393 49.937C45.1624 49.8593 45.071 49.7975 44.9702 49.7551C44.8694 49.7127 44.7613 49.6906 44.652 49.69H35.112C34.89 49.69 34.6771 49.7782 34.5201 49.9352C34.3631 50.0921 34.275 50.305 34.275 50.527V59.0185C34.275 59.4775 34.653 59.851 35.112 59.851ZM21.972 59.851H31.512C31.732 59.8498 31.9426 59.7616 32.0977 59.6056C32.2529 59.4496 32.34 59.2385 32.34 59.0185V50.527C32.3405 50.4177 32.3196 50.3093 32.2783 50.2081C32.237 50.1068 32.1762 50.0147 32.0993 49.937C32.0224 49.8593 31.931 49.7975 31.8302 49.7551C31.7294 49.7127 31.6213 49.6906 31.512 49.69H21.972C21.7519 49.6912 21.5413 49.7794 21.3862 49.9354C21.231 50.0914 21.144 50.3025 21.144 50.5225V59.0185C21.144 59.4775 21.5085 59.851 21.972 59.851ZM118.933 54.505C118.641 54.2755 115.909 52.21 110.14 52.21C108.619 52.2145 107.098 52.345 105.595 52.6015C104.479 44.9515 98.157 41.2165 97.8735 41.0545L96.3255 40.159L95.3085 41.6305C94.0305 43.6015 93.1035 45.7795 92.5545 48.0655C91.5195 52.4305 92.1495 56.5345 94.368 60.04C91.6905 61.534 87.393 61.8985 86.52 61.93H15.3795C14.4863 61.9312 13.6299 62.2859 12.9975 62.9166C12.365 63.5474 12.008 64.4028 12.0045 65.296C11.9211 71.5278 12.9764 77.7224 15.1185 83.575C17.571 90.001 21.216 94.735 25.9635 97.633C31.2735 100.887 39.9135 102.75 49.701 102.75C54.1245 102.763 58.5345 102.362 62.886 101.552C68.9288 100.442 74.7434 98.3298 80.0895 95.302C84.4995 92.7505 88.4595 89.506 91.8345 85.69C97.4685 79.309 100.825 72.2035 103.323 65.89H104.317C110.491 65.89 114.285 63.4195 116.377 61.3495C117.768 60.031 118.852 58.4245 119.559 56.6425L120 55.3465L118.933 54.505Z" fill="white"/>
</g>
<defs>
<clipPath id="clip0_79_56">
<rect width="108" height="108" fill="white" transform="translate(12 10)"/>
</clipPath>
</defs>
</svg>
