<svg width="128" height="128" viewBox="0 0 128 128" fill="none" xmlns="http://www.w3.org/2000/svg">
<rect width="128" height="128" fill="#333333"/>
<path d="M14 97.6833C14.1792 99.8917 14.9583 102.112 16.9917 105.092C19.4083 108.629 23.5583 110.571 26.5875 107.454C28.6292 105.35 50.7292 66.7208 61.3792 52.0792C61.6714 51.6606 62.0604 51.3187 62.513 51.0826C62.9657 50.8466 63.4686 50.7233 63.9792 50.7233C64.4897 50.7233 64.9926 50.8466 65.4453 51.0826C65.898 51.3187 66.2869 51.6606 66.5792 52.0792C77.2292 66.7208 99.3292 105.35 101.371 107.454C104.4 110.571 108.55 108.629 110.967 105.092C113.342 101.612 114 99.175 114 96.5667C114 94.7917 79.5833 30.7417 76.1167 25.4083C72.7833 20.2833 71.7667 19.1667 66.1292 18.9833H61.8292C56.1917 19.1667 55.175 20.2792 51.8375 25.4083C48.4458 30.6292 15.375 92.1583 14 96.375V97.6833Z" fill="white"/>
</svg>
