<svg width="128" height="128" viewBox="0 0 128 128" fill="none" xmlns="http://www.w3.org/2000/svg">
<rect width="128" height="128" fill="#333333"/>
<path d="M65.7734 16.0075C57.6835 26.0905 50.686 37.0137 44.9 48.5917C44.1337 47.9184 43.3977 47.211 42.6942 46.4716C41.1703 44.3597 39.5729 42.3024 37.9051 40.3036C35.8595 42.8807 34.1857 45.7356 32.9331 48.7837C29.882 56.2981 27.943 64.2226 27.1782 72.3038C26.71 76.9717 27.1666 81.6867 28.5216 86.1758C33.736 100.096 43.6004 108.548 58.1108 111.524C70.2526 113.276 80.9834 110.192 90.2914 102.276C100.931 91.9158 103.641 79.7398 98.4269 65.7477C95.1842 57.9312 91.2077 50.4438 86.5515 43.3876C80.2718 34.0209 73.5638 24.9525 66.4491 16.2115C66.3572 16.1313 66.2495 16.0716 66.133 16.0364C66.0166 16.0013 65.894 15.9914 65.7734 16.0075ZM64.438 31.6316C71.4719 39.8434 77.8432 48.6073 83.4912 57.8397C85.2717 60.9077 86.7383 64.1197 87.8948 67.4797C90.3033 77.0238 87.72 84.8958 80.1408 91.0958C72.8081 96.2879 64.76 97.8279 56.0084 95.7199C46.5653 92.7718 41.1045 86.3798 39.63 76.5438C39.2681 73.4881 39.5969 70.3896 40.5918 67.4797C42.0146 63.8477 43.7315 60.3837 45.7585 57.0757L51.5054 48.5917C55.854 42.9675 60.165 37.3141 64.438 31.6316Z" fill="white"/>
</svg>
