<svg width="128" height="128" viewBox="0 0 128 128" fill="none" xmlns="http://www.w3.org/2000/svg">
<rect x="2" y="2" width="124" height="124" stroke="#4D4D4D" stroke-width="4"/>
<path d="M39.9213 24.7246L22.1082 24.7272C18.7343 24.7272 16 27.4624 16 30.8363V48.0962C16 49.8793 16.7793 51.574 18.1329 52.7349L75.374 101.8C76.4816 102.748 77.8919 103.27 79.3502 103.27H97.1634C100.537 103.27 103.272 100.535 103.272 97.1609V79.8985C103.272 78.1154 102.493 76.4206 101.14 75.2599L43.8984 26.196C42.791 25.2465 41.3805 24.7246 39.9213 24.7246Z" fill="#FF8100"/>
<path d="M37.7789 24.7246H22.1091C18.7351 24.7246 16 27.4597 16 30.8337V50.4727C16 50.7616 16.0209 51.0505 16.0611 51.3367L23.9767 106.752C24.4069 109.762 26.9841 111.997 30.0247 111.997H53.5341C56.9089 111.997 59.644 109.261 59.6433 105.886L59.6362 78.0788C59.6362 77.4224 59.5306 76.7705 59.3229 76.1483L43.5737 28.9015C42.7421 26.4072 40.4084 24.7246 37.7789 24.7246Z" fill="url(#paint0_linear_57_221)"/>
<path d="M105.891 16H54.9387C52.495 16 50.2861 17.4566 49.3234 19.7021L25.2215 75.938C24.8959 76.6982 24.7275 77.5177 24.7275 78.345V105.891C24.7275 109.265 27.4626 112 30.8366 112H57.7855C58.9924 112 60.1723 111.642 61.1769 110.972L109.28 78.867C110.978 77.7342 111.997 75.8272 111.997 73.7858L112 22.1091C112 18.7351 109.265 16 105.891 16Z" fill="url(#paint1_linear_57_221)"/>
<path d="M93.9998 34H33.9999V94H93.9998V34Z" fill="black"/>
<path d="M41.4999 60.0784H45.9681V45.4216H41.4999V41.5H54.7584V45.4216H50.2902V60.0784H54.7584V64H41.4999V60.0784Z" fill="white"/>
<path d="M57.0082 59.9503H60.2389C60.892 59.9503 61.4739 59.8111 61.9827 59.5327C62.4915 59.2541 62.8851 58.8606 63.1635 58.3518C63.442 57.843 63.5812 57.262 63.5812 56.608V41.5H67.9685V56.9122C67.9685 58.2623 67.6574 59.476 67.0361 60.5529C66.4147 61.6297 65.5579 62.4736 64.4647 63.0838C63.3715 63.6949 62.1451 64 60.7846 64H57.0082V59.9503Z" fill="white"/>
<path d="M41.4999 82H65.4998V86.5H41.4999V82Z" fill="white"/>
<defs>
<linearGradient id="paint0_linear_57_221" x1="13.633" y1="18.975" x2="37.2866" y2="120.994" gradientUnits="userSpaceOnUse">
<stop offset="0.1" stop-color="#FC801D"/>
<stop offset="0.59" stop-color="#FE2857"/>
</linearGradient>
<linearGradient id="paint1_linear_57_221" x1="13.3667" y1="106.028" x2="101.025" y2="9.60234" gradientUnits="userSpaceOnUse">
<stop offset="0.21" stop-color="#FE2857"/>
<stop offset="0.7" stop-color="#007EFF"/>
</linearGradient>
</defs>
</svg>
