<svg width="128" height="128" viewBox="0 0 128 128" fill="none" xmlns="http://www.w3.org/2000/svg">
<rect width="128" height="128" fill="#333333"/>
<g clip-path="url(#clip0_1_36)">
<path d="M105.004 63.28C104.999 60.5266 104.083 57.8522 102.398 55.6741C100.714 53.4961 98.3558 51.937 95.692 51.24L107.644 16H48.416L60.4 51.352C57.8129 52.1061 55.5399 53.6784 53.9216 55.8332C52.3034 57.988 51.427 60.6092 51.424 63.304C51.424 67.476 53.504 71.172 56.676 73.448C55.4 75.2469 53.9474 76.9139 52.34 78.424C49.3832 81.2402 45.923 83.475 42.14 85.012C38.804 82.76 37.36 78.788 38.664 75.228C41.5019 74.3465 43.9304 72.4783 45.5103 69.9615C47.0901 67.4446 47.7167 64.4454 47.2769 61.5065C46.837 58.5676 45.3597 55.8833 43.1122 53.9393C40.8647 51.9953 37.9956 50.92 35.024 50.908C31.7228 50.9122 28.5581 52.2255 26.2238 54.5598C23.8895 56.8941 22.5762 60.0588 22.572 63.36C22.572 66.752 23.96 69.864 26.184 72.088C25.992 72.476 25.796 72.868 25.6 73.284C23.74 77.12 21.628 81.456 20.82 86.32C19.208 96.048 21.848 103.856 28.216 108.276C31.6625 110.707 35.7785 112.008 39.996 112C47.304 112 54.724 108.332 61.896 104.772C67.012 102.244 72.292 99.604 77.488 98.324C79.408 97.852 81.408 97.576 83.52 97.268C87.8 96.656 92.22 96.02 96.192 93.708C98.4603 92.4082 100.417 90.6279 101.925 88.4921C103.432 86.3563 104.455 83.9166 104.92 81.344C105.616 77.368 104.92 73.368 103.144 69.864C104.336 67.944 105.004 65.7 105.004 63.28ZM99.584 63.28C99.584 67.14 96.444 70.28 92.584 70.28C91.1304 70.2759 89.714 69.8202 88.5308 68.9759C87.3475 68.1316 86.4559 66.9405 85.9793 65.5673C85.5026 64.194 85.4645 62.7066 85.8703 61.3108C86.276 59.915 87.1055 58.6797 88.244 57.776L88.272 57.748C88.496 57.58 88.744 57.412 88.992 57.248C88.992 57.248 89.024 57.248 89.024 57.22C89.136 57.164 89.244 57.08 89.356 57.02C89.384 57.02 89.412 56.996 89.44 56.996C89.552 56.94 89.692 56.884 89.828 56.828C89.968 56.772 90.108 56.72 90.22 56.664C90.248 56.664 90.272 56.636 90.3 56.636C90.412 56.608 90.524 56.552 90.636 56.524C90.664 56.524 90.716 56.496 90.748 56.496C90.884 56.468 90.996 56.44 91.136 56.416H91.164L91.58 56.328C91.608 56.328 91.66 56.328 91.692 56.3C91.804 56.3 91.912 56.272 92.024 56.272H92.164C92.304 56.272 92.444 56.244 92.608 56.244H92.968C93.08 56.244 93.168 56.244 93.276 56.272H93.332C93.552 56.3 93.776 56.328 94 56.384C95.578 56.7221 96.9927 57.5904 98.0086 58.8443C99.0246 60.0982 99.5805 61.6662 99.584 63.28ZM56.172 21.56H99.892L89.856 51.16C89.44 51.24 89.024 51.38 88.608 51.52L78.048 29.98L67.456 51.38C67.04 51.244 66.592 51.16 66.148 51.076L56.172 21.56ZM76.044 60.86C75.5327 58.2943 74.2187 55.9577 72.292 54.188L78.044 42.572L83.852 54.44C82.132 56.16 80.88 58.36 80.38 60.86H76.044ZM62.12 56.468C62.256 56.44 62.368 56.412 62.508 56.388H62.588C62.704 56.356 62.812 56.356 62.924 56.328H63.036C63.148 56.328 63.232 56.3 63.34 56.3H64.424C64.536 56.3 64.62 56.328 64.704 56.328C64.76 56.328 64.784 56.328 64.844 56.356C64.952 56.384 65.036 56.384 65.148 56.412C65.176 56.412 65.204 56.412 65.26 56.44L65.648 56.52H65.676C65.788 56.552 65.9 56.58 66.008 56.636C66.036 56.636 66.064 56.664 66.12 56.664C66.204 56.692 66.316 56.72 66.4 56.772C66.428 56.772 66.456 56.8 66.48 56.8C66.592 56.856 66.704 56.884 66.816 56.94H66.844C66.9724 56.9885 67.0936 57.0545 67.204 57.136H67.232C67.344 57.192 67.456 57.272 67.568 57.328C67.596 57.328 67.596 57.356 67.62 57.356C67.732 57.412 67.82 57.496 67.928 57.552L67.956 57.58C68.288 57.828 68.596 58.108 68.9 58.384L68.928 58.412C70.1667 59.7167 70.8544 61.4489 70.848 63.248C70.7866 65.0646 70.0218 66.7863 68.715 68.0497C67.4082 69.313 65.6617 70.0193 63.844 70.0193C62.0264 70.0193 60.2798 69.313 58.973 68.0497C57.6662 66.7863 56.9014 65.0646 56.84 63.248C56.8356 61.6903 57.3533 60.1761 58.3104 58.9472C59.2675 57.7182 60.6087 56.8453 62.12 56.468ZM34.768 56.272C38.632 56.272 41.772 59.416 41.772 63.276C41.772 67.136 38.632 70.28 34.772 70.28C30.912 70.28 27.764 67.14 27.764 63.28C27.764 59.42 30.908 56.272 34.768 56.272ZM99.42 80.372C99.1039 82.1502 98.3994 83.8368 97.3568 85.3116C96.3141 86.7863 94.959 88.0129 93.388 88.904C90.356 90.656 86.632 91.212 82.712 91.768C80.5079 92.0504 78.3187 92.4388 76.152 92.932C70.372 94.352 64.816 97.132 59.424 99.8C52.528 103.216 46.024 106.44 39.996 106.44C36.9049 106.459 33.8877 105.496 31.38 103.688C25.264 99.464 25.568 91.544 26.292 87.208C26.96 83.148 28.82 79.344 30.6 75.7C30.712 75.48 30.796 75.284 30.908 75.06C31.516 75.284 32.156 75.452 32.824 75.564C31.768 81.456 34.768 87.54 40.608 90.544L41.664 91.1L42.8 90.684C47.664 88.96 52.168 86.152 56.144 82.4C58.3396 80.3527 60.2803 78.0481 61.924 75.536C62.564 75.644 63.204 75.672 63.844 75.672C66.5956 75.6656 69.2677 74.7492 71.444 73.0656C73.6204 71.382 75.1786 69.0257 75.876 66.364H80.544C81.2368 69.0297 82.795 71.3901 84.974 73.0747C87.1531 74.7593 89.8297 75.6728 92.584 75.672C94.888 75.672 97.024 75.032 98.864 73.952C99.584 76.032 99.808 78.204 99.42 80.372Z" fill="white"/>
</g>
<defs>
<clipPath id="clip0_1_36">
<rect width="96" height="96" fill="white" transform="translate(16 16)"/>
</clipPath>
</defs>
</svg>
