<svg width="128" height="128" viewBox="0 0 128 128" fill="none" xmlns="http://www.w3.org/2000/svg">
<rect width="128" height="128" fill="#333333"/>
<path d="M45.6957 74.6326C45.511 74.3114 45.3833 73.9607 45.3181 73.5961C45.3904 73.9592 45.5189 74.3088 45.6957 74.6326ZM46.1601 75.2055C46.3385 75.3822 46.5394 75.5357 46.7619 75.6458C46.5396 75.5321 46.3369 75.3835 46.1617 75.2055H46.1601Z" fill="#083042"/>
<path d="M64.2692 94.8717H64.1567C63.0299 94.8764 61.9203 94.5955 60.9315 94.0554L38.2875 81.4003C36.9513 80.6515 36.1293 79.2631 36.1293 77.7629V52.0142C36.1293 50.911 36.3293 49.8528 36.7962 48.9272L19.0904 39.0732C18.3568 40.6159 17.9792 42.3579 18.0009 44.1882V86.7146C18.0138 87.9446 18.352 89.1493 18.9812 90.2063C19.6103 91.2632 20.5079 92.1349 21.5829 92.7328L58.93 113.633C60.5771 114.559 62.4228 115 64.2467 115V114.978C64.2909 112.311 64.2692 101.617 64.2692 94.8717Z" fill="#083042"/>
<path d="M82.0408 53.5987L81.9066 53.4011C81.7957 53.2468 81.6857 53.1142 81.5748 52.9608C81.6857 53.0925 81.7957 53.2476 81.9066 53.4011C81.9613 53.4599 82.0065 53.5261 82.0408 53.5987ZM63.4014 43.2819C63.5139 43.2819 63.6031 43.2602 63.7148 43.2602C63.6031 43.2819 63.4914 43.2819 63.4014 43.2819Z" fill="#3DDB85"/>
<path d="M36.7737 48.9039C37.2706 47.8755 38.0603 47.0168 39.0436 46.4356L60.3522 33.9791C61.3282 33.4055 62.4374 33.0976 63.5694 33.086C64.7014 33.0744 65.8167 33.3596 66.8042 33.9132L88.3362 45.9728C89.3027 46.5121 90.1323 47.2661 90.7612 48.1768L108.178 37.8824C107.142 36.3911 105.781 35.1547 104.197 34.2667L68.6274 14.3594C66.9991 13.4497 65.1614 12.9813 63.2964 13.0006C61.4314 13.0199 59.6038 13.5262 57.9947 14.4695L22.8275 35.0156C21.2043 35.9639 19.9026 37.377 19.0905 39.0724L36.7737 48.9039Z" fill="#3DDC84"/>
<path d="M45.7367 53.8655C45.7817 53.7771 45.8259 53.6887 45.8716 53.6244C45.8259 53.712 45.7825 53.7771 45.7367 53.8655Z" fill="#3DDB85"/>
<path d="M108.156 37.8824L90.7386 48.1768C91.4055 49.1466 91.8065 50.2924 91.8274 51.4623V75.9768C91.8409 77.0996 91.5555 78.2058 91.0006 79.182C90.4458 80.1582 89.6413 80.9693 88.6696 81.5322L67.3594 93.9903C66.4189 94.5392 65.3553 94.8423 64.2668 94.8717C64.2901 101.596 64.2901 112.289 64.2451 114.957V114.978C66.113 114.958 67.944 114.456 69.5618 113.522L104.73 92.9538C108 91.0359 110.002 87.5519 109.957 83.7819V43.3277C109.935 41.3656 109.268 39.4918 108.156 37.8824Z" fill="#4285F4"/>
<path d="M82.445 73.3542C82.4225 73.3992 82.4225 73.4434 82.4 73.4892C82.4252 73.4483 82.4406 73.4021 82.445 73.3542ZM82.2216 53.888C82.1758 53.7771 82.1091 53.6888 82.0425 53.5787C82.1091 53.6888 82.1766 53.7996 82.2216 53.888ZM66.2498 84.1122L80.5303 75.7575L66.2498 84.1138V84.1122ZM82.2658 73.8612C82.2208 73.9721 82.1541 74.0822 82.1083 74.1931C82.1541 74.0605 82.1983 73.9496 82.2658 73.8612Z" fill="#4285F4"/>
<path d="M45.6732 54.0632C45.492 54.4915 45.3795 54.9457 45.3398 55.4091C45.3173 55.5842 45.3173 55.761 45.3173 55.9603V73.2217C45.3173 73.3535 45.3173 73.4643 45.3398 73.5969C45.3848 73.9705 45.5181 74.3241 45.7174 74.6334C45.8516 74.8536 46.0067 75.0287 46.1633 75.2055C46.3417 75.3823 46.541 75.5357 46.7627 75.6474L61.9343 84.1347C62.5943 84.4995 63.3368 84.689 64.0909 84.6851H64.2475C64.9548 84.6612 65.6442 84.4565 66.2498 84.0905L80.5303 75.735C80.6195 75.6908 80.6862 75.6241 80.7754 75.5807C80.9313 75.4707 81.0871 75.3598 81.2205 75.2272C81.4294 75.0376 81.6231 74.8319 81.7982 74.6101C81.9091 74.4558 82.0208 74.3024 82.11 74.1473C82.1759 74.038 82.2217 73.9271 82.2651 73.8163C82.31 73.7078 82.3775 73.5744 82.4217 73.4426C82.4434 73.3976 82.4434 73.3535 82.4659 73.3101C82.6006 72.8819 82.6681 72.4355 82.666 71.9867V55.5625C82.666 55.2548 82.621 54.9679 82.5551 54.6819C82.5109 54.4826 82.4426 54.3059 82.3767 54.1291L82.2434 53.8656C82.1992 53.7547 82.1309 53.6671 82.065 53.5562L81.9316 53.3586C81.8207 53.2035 81.709 53.0717 81.5982 52.9174C81.2357 52.4952 80.7982 52.1438 80.3077 51.8809L65.8722 43.7914C65.6231 43.6512 65.3624 43.5329 65.0928 43.4378C64.7311 43.3275 64.3575 43.2611 63.98 43.2402H63.6907C63.5806 43.2402 63.4915 43.2402 63.3806 43.2611C63.125 43.2838 62.8718 43.3282 62.6237 43.3936C62.5795 43.4153 62.5353 43.4153 62.4903 43.4386C62.1569 43.527 61.8451 43.6805 61.5333 43.8565L47.2529 52.2128C46.8378 52.4554 46.4746 52.7776 46.1842 53.1609C46.0741 53.3152 45.9625 53.4694 45.8733 53.6237C45.8291 53.7121 45.7849 53.778 45.7399 53.8664L45.6732 54.0632Z" fill="#D6F0FF"/>
<path d="M64.2451 84.6843H64.0892C63.3348 84.6879 62.5919 84.4987 61.931 84.1347L46.7611 75.6466C46.5432 75.5251 46.3413 75.3769 46.1601 75.2055C45.9862 75.0355 45.8364 74.8425 45.715 74.6318C45.5303 74.3107 45.4025 73.96 45.3373 73.5953C45.314 73.4643 45.314 73.3535 45.314 73.2217V55.9586C45.314 55.7827 45.314 55.585 45.3373 55.4074C45.3799 54.9454 45.4916 54.4915 45.6708 54.0624L41.577 51.5724L36.7721 48.9048C36.327 49.8304 36.1052 50.8878 36.1052 51.991V77.7405C36.1185 78.482 36.3243 79.2072 36.7025 79.845C37.0808 80.4829 37.6184 81.0114 38.2626 81.3787L60.8865 94.0546C61.8716 94.6042 62.9837 94.8857 64.1117 94.871H64.2242C64.2242 91.5855 64.2009 89.2489 64.2009 89.2489L64.2451 84.6843Z" fill="#083042"/>
<path d="M64.2451 84.6843H64.0892C63.3348 84.6879 62.5919 84.4987 61.931 84.1347L46.7611 75.6466C46.5432 75.5251 46.3413 75.3769 46.1601 75.2055C45.9862 75.0355 45.8364 74.8425 45.715 74.6318C45.5303 74.3107 45.4025 73.96 45.3373 73.5953C45.314 73.4643 45.314 73.3535 45.314 73.2217V55.9586C45.314 55.7827 45.314 55.585 45.3373 55.4074C45.3799 54.9454 45.4916 54.4915 45.6708 54.0624L41.577 51.5724L36.7721 48.9048C36.327 49.8304 36.1052 50.8878 36.1052 51.991V77.7405C36.1185 78.482 36.3243 79.2072 36.7025 79.845C37.0808 80.4829 37.6184 81.0114 38.2626 81.3787L60.8865 94.0546C61.8716 94.6042 62.9837 94.8857 64.1117 94.871H64.2242C64.2242 91.5855 64.2009 89.2489 64.2009 89.2489L64.2451 84.6843Z" fill="#041619"/>
<path d="M88.3129 45.9728L66.7801 33.9124C65.7926 33.3592 64.6775 33.0743 63.5456 33.086C62.4138 33.0977 61.3047 33.4056 60.3289 33.9791L39.0203 46.4364C38.0314 47.0113 37.2398 47.8721 36.7496 48.9056L41.5786 51.5732L45.6708 54.0632L45.7367 53.8655C45.7817 53.7764 45.8259 53.6888 45.87 53.6229C45.9592 53.4686 46.0709 53.3143 46.1818 53.1601C46.4711 52.7848 46.827 52.4771 47.2504 52.212L61.5301 43.8556C61.8354 43.6845 62.1544 43.5447 62.4871 43.4378C62.5321 43.4161 62.5763 43.4161 62.6205 43.3928C62.8679 43.3253 63.121 43.2819 63.3765 43.261C63.4874 43.261 63.5766 43.2386 63.6883 43.2386H63.9776C64.3544 43.2627 64.7272 43.3277 65.0896 43.4362C65.3628 43.523 65.6239 43.6411 65.8682 43.7906L80.3037 51.8817C80.791 52.1497 81.2281 52.5001 81.5957 52.9174C81.7058 53.0492 81.8183 53.2043 81.9284 53.3577L82.0626 53.5554L85.7546 51.1096L90.7596 48.1334C90.1144 47.2729 89.2916 46.5015 88.3129 45.9728Z" fill="#3DDB85"/>
<path d="M88.3129 45.9728L66.7801 33.9124C65.7926 33.3592 64.6775 33.0743 63.5456 33.086C62.4138 33.0977 61.3047 33.4056 60.3289 33.9791L39.0203 46.4364C38.0314 47.0113 37.2398 47.8721 36.7496 48.9056L41.5786 51.5732L45.6708 54.0632L45.7367 53.8655C45.7817 53.7764 45.8259 53.6888 45.87 53.6229C45.9592 53.4686 46.0709 53.3143 46.1818 53.1601C46.4711 52.7848 46.827 52.4771 47.2504 52.212L61.5301 43.8556C61.8354 43.6845 62.1544 43.5447 62.4871 43.4378C62.5321 43.4161 62.5763 43.4161 62.6205 43.3928C62.8679 43.3253 63.121 43.2819 63.3765 43.261C63.4874 43.261 63.5766 43.2386 63.6883 43.2386H63.9776C64.3544 43.2627 64.7272 43.3277 65.0896 43.4362C65.3628 43.523 65.6239 43.6411 65.8682 43.7906L80.3037 51.8817C80.791 52.1497 81.2281 52.5001 81.5957 52.9174C81.7058 53.0492 81.8183 53.2043 81.9284 53.3577L82.0626 53.5554L85.7546 51.1096L90.7596 48.1334C90.1144 47.2729 89.2916 46.5015 88.3129 45.9728Z" fill="#37BF6E"/>
<path d="M82.0408 53.6003C82.1075 53.7096 82.1525 53.798 82.2184 53.9089L82.3526 54.1732C82.5398 54.6279 82.638 55.1142 82.6419 55.6059V72.0308C82.6435 72.4794 82.5757 72.9255 82.441 73.3534C82.4193 73.3968 82.4193 73.4418 82.3968 73.4852C82.3545 73.6142 82.3026 73.7399 82.2417 73.8612C82.1959 73.9697 82.1292 74.0806 82.085 74.1906C81.9967 74.3457 81.885 74.4992 81.7733 74.6542C81.5984 74.8756 81.4051 75.0817 81.1956 75.2705C81.0622 75.4031 80.9063 75.5132 80.7504 75.6241C80.6612 75.6675 80.5954 75.7341 80.5062 75.7783L66.2249 84.133C65.6107 84.4797 64.9263 84.6835 64.2226 84.7292V89.2923C64.2226 89.2923 64.2226 91.6296 64.2451 94.9143C65.3352 94.895 66.4013 94.5912 67.3377 94.0329L88.6464 81.5755C90.627 80.4081 91.8282 78.2909 91.8057 76.021V51.5056C91.784 50.3149 91.3839 49.19 90.717 48.2202L85.7104 51.1971L82.0408 53.6003Z" fill="#4285F4"/>
<path d="M82.0408 53.6003C82.1075 53.7096 82.1525 53.798 82.2184 53.9089L82.3526 54.1732C82.5398 54.6279 82.638 55.1142 82.6419 55.6059V72.0308C82.6435 72.4794 82.5757 72.9255 82.441 73.3534C82.4193 73.3968 82.4193 73.4418 82.3968 73.4852C82.3545 73.6142 82.3026 73.7399 82.2417 73.8612C82.1959 73.9697 82.1292 74.0806 82.085 74.1906C81.9967 74.3457 81.885 74.4992 81.7733 74.6542C81.5984 74.8756 81.4051 75.0817 81.1956 75.2705C81.0622 75.4031 80.9063 75.5132 80.7504 75.6241C80.6612 75.6675 80.5954 75.7341 80.5062 75.7783L66.2249 84.133C65.6107 84.4797 64.9263 84.6835 64.2226 84.7292V89.2923C64.2226 89.2923 64.2226 91.6296 64.2451 94.9143C65.3352 94.895 66.4013 94.5912 67.3377 94.0329L88.6464 81.5755C90.627 80.4081 91.8282 78.2909 91.8057 76.021V51.5056C91.784 50.3149 91.3839 49.19 90.717 48.2202L85.7104 51.1971L82.0408 53.6003Z" fill="#3870B2"/>
<path d="M62.5119 43.4603C62.1777 43.5487 61.8659 43.703 61.5558 43.8781L47.2745 52.2345L61.5542 43.8798C61.8512 43.6954 62.1732 43.5547 62.5103 43.4619L62.5119 43.4603Z" fill="#D6F0FF"/>
<path opacity="0.1" d="M62.5119 43.4603C62.1777 43.5487 61.8659 43.703 61.5558 43.8781L47.2745 52.2345L61.5542 43.8798C61.8512 43.6954 62.1732 43.5547 62.5103 43.4619L62.5119 43.4603Z" fill="black"/>
<path d="M82.3526 54.1523C82.4213 54.3322 82.4803 54.5157 82.5294 54.7019C82.4852 54.526 82.4169 54.35 82.351 54.1523H82.3526Z" fill="#D6F0FF"/>
<path opacity="0.1" d="M82.3526 54.1523C82.4213 54.3322 82.4803 54.5157 82.5294 54.7019C82.4852 54.526 82.4169 54.35 82.351 54.1523H82.3526Z" fill="black"/>
</svg>
