<svg width="128" height="128" viewBox="0 0 128 128" fill="none" xmlns="http://www.w3.org/2000/svg">
<rect width="128" height="128" fill="#333333"/>
<path d="M63.1736 14.0088C62.2625 14.0547 61.3698 14.2806 60.5479 14.6733L24.7186 31.7929C23.7912 32.2357 22.9764 32.8801 22.3346 33.6782C21.6928 34.4763 21.2406 35.4075 21.0115 36.4027L12.1721 74.8577C11.968 75.7437 11.9452 76.6613 12.105 77.5562C12.2647 78.4511 12.6039 79.3052 13.1024 80.0678C13.2232 80.2542 13.3532 80.4347 13.4918 80.6085L38.2915 111.443C38.9334 112.241 39.7483 112.885 40.6757 113.328C41.603 113.77 42.619 114 43.6482 114L83.4183 113.991C84.4471 113.992 85.4629 113.763 86.3902 113.321C87.3176 112.879 88.1327 112.236 88.7751 111.438L113.566 80.5993C114.208 79.8011 114.66 78.8695 114.89 77.8739C115.119 76.8783 115.119 75.8442 114.89 74.8485L106.037 36.3935C105.808 35.3983 105.355 34.4671 104.714 33.669C104.072 32.871 103.257 32.2266 102.33 31.7837L66.4957 14.6733C65.4619 14.1793 64.3196 13.9509 63.1736 14.0088Z" fill="#326CE5"/>
<path d="M63.5286 27.0955C62.3442 27.0956 61.3839 28.1624 61.384 29.4783C61.384 29.4985 61.3882 29.5178 61.3886 29.5379C61.3869 29.7167 61.3782 29.9321 61.384 30.0878C61.4123 30.8468 61.5777 31.4277 61.6773 32.1269C61.8577 33.6236 62.0089 34.8642 61.9156 36.0173C61.8249 36.4522 61.5046 36.8498 61.2191 37.1263L61.1687 38.0336C59.8817 38.1402 58.5861 38.3354 57.292 38.6293C51.7236 39.8936 46.9293 42.7619 43.2792 46.6346C43.0424 46.473 42.628 46.1758 42.5048 46.0847C42.1219 46.1364 41.7349 46.2546 41.2309 45.961C40.2712 45.315 39.3971 44.4233 38.3394 43.3491C37.8548 42.8352 37.5039 42.3459 36.9281 41.8506C36.7973 41.7382 36.5978 41.586 36.4515 41.4703C36.0014 41.1114 35.4704 40.9242 34.9577 40.9067C34.2984 40.8841 33.6638 41.1419 33.2485 41.6628C32.5101 42.5888 32.7465 44.0042 33.7754 44.8246C33.7859 44.8329 33.797 44.8394 33.8075 44.8475C33.9489 44.9621 34.122 45.109 34.252 45.2049C34.863 45.656 35.4211 45.887 36.0299 46.2451C37.3126 47.0372 38.3759 47.694 39.2193 48.4859C39.5486 48.8369 39.6062 49.4556 39.65 49.7231L40.3373 50.3371C36.6578 55.8746 34.9548 62.7145 35.9612 69.6838L35.0631 69.945C34.8264 70.2506 34.4919 70.7316 34.142 70.8752C33.0386 71.2227 31.7967 71.3504 30.2974 71.5075C29.5935 71.5661 28.9862 71.5311 28.24 71.6725C28.0757 71.7036 27.8469 71.7632 27.6672 71.8054C27.6609 71.8067 27.6551 71.8085 27.6488 71.81C27.6391 71.8122 27.6262 71.817 27.6168 71.8191C26.3528 72.1245 25.5408 73.2863 25.8022 74.4311C26.0636 75.576 27.2983 76.2723 28.5699 75.9982C28.5791 75.9961 28.5924 75.9958 28.602 75.9936C28.6163 75.9904 28.629 75.9834 28.6432 75.9799C28.8205 75.941 29.0426 75.8977 29.1977 75.8562C29.9313 75.6597 30.4627 75.3711 31.1223 75.1184C32.5412 74.6095 33.7165 74.1843 34.8614 74.0187C35.3397 73.9812 35.8435 74.3137 36.0941 74.454L37.0289 74.2936C39.1801 80.963 43.6882 86.3536 49.3966 89.7361L49.0071 90.6709C49.1475 91.0339 49.3024 91.525 49.1978 91.8834C48.7815 92.9628 48.0686 94.1022 47.2567 95.3724C46.8636 95.9592 46.4612 96.4146 46.1065 97.0861C46.0216 97.2468 45.9135 97.4937 45.8316 97.6635C45.2804 98.8428 45.6847 100.201 46.7434 100.711C47.8089 101.224 49.1313 100.683 49.7036 99.501C49.7045 99.4994 49.7074 99.4981 49.7082 99.4965C49.7088 99.4951 49.7076 99.4932 49.7082 99.4919C49.7897 99.3243 49.9052 99.1041 49.974 98.9466C50.2778 98.2505 50.3789 97.654 50.5926 96.9808C51.16 95.5555 51.4718 94.0599 52.2529 93.1281C52.4668 92.8729 52.8155 92.7747 53.177 92.6779L53.6628 91.7981C58.6393 93.7083 64.2097 94.2209 69.7743 92.9575C71.0437 92.6692 72.2692 92.2962 73.4539 91.8485C73.5904 92.0907 73.8441 92.5562 73.9121 92.6734C74.2795 92.7929 74.6805 92.8546 75.0073 93.3378C75.5917 94.3362 75.9913 95.5174 76.4782 96.9441C76.6919 97.6173 76.7975 98.2139 77.1014 98.9099C77.1707 99.0686 77.2856 99.2919 77.3672 99.4598C77.9383 100.645 79.265 101.188 80.332 100.674C81.3906 100.164 81.7953 98.806 81.2439 97.6269C81.1619 97.457 81.0492 97.2102 80.9643 97.0495C80.6096 96.3779 80.2073 95.9271 79.8142 95.3403C79.0022 94.0701 78.3288 93.015 77.9125 91.9356C77.7384 91.3789 77.9419 91.0327 78.0775 90.6709C77.9963 90.5778 77.8225 90.0521 77.72 89.8048C83.6525 86.302 88.0283 80.7103 90.0832 74.2524C90.3607 74.296 90.843 74.3813 90.9997 74.4128C91.3222 74.2 91.6187 73.9225 92.2002 73.9683C93.3452 74.1339 94.5204 74.5592 95.9394 75.068C96.599 75.3207 97.1303 75.614 97.864 75.8104C98.0191 75.8519 98.2412 75.8906 98.4185 75.9295C98.4327 75.933 98.4453 75.94 98.4597 75.9432C98.4693 75.9454 98.4826 75.9457 98.4918 75.9478C99.7634 76.2216 100.998 75.5257 101.26 74.3807C101.521 73.2359 100.709 72.0738 99.4449 71.7687C99.261 71.7269 99.0003 71.6559 98.8217 71.6221C98.0755 71.4808 97.4681 71.5156 96.7642 71.4571C95.265 71.3 94.0231 71.1723 92.9197 70.8248C92.4697 70.6502 92.1497 70.1149 91.994 69.8946L91.128 69.6425C91.577 66.3939 91.4559 63.013 90.6789 59.6301C89.8946 56.2158 88.5086 53.093 86.6602 50.3417C86.8823 50.1398 87.3019 49.7682 87.4208 49.659C87.4556 49.2742 87.4257 48.8707 87.8241 48.4446C88.6674 47.6527 89.7308 46.996 91.0134 46.2039C91.6222 45.8457 92.1849 45.6148 92.7959 45.1637C92.9341 45.0617 93.1228 44.9001 93.2679 44.7833C94.2966 43.9627 94.5334 42.5474 93.7949 41.6215C93.0563 40.6957 91.6251 40.6085 90.5964 41.4291C90.45 41.545 90.2513 41.6963 90.1198 41.8094C89.5441 42.3047 89.1885 42.794 88.7039 43.3078C87.6463 44.3821 86.7721 45.2783 85.8124 45.9243C85.3966 46.1665 84.7875 46.0827 84.511 46.0664L83.6954 46.6484C79.0443 41.7712 72.7118 38.653 65.893 38.0473C65.874 37.7616 65.849 37.245 65.8426 37.0896C65.5635 36.8225 65.2263 36.5944 65.1415 36.0173C65.0483 34.8642 65.204 33.6236 65.3844 32.1269C65.484 31.4277 65.6494 30.8468 65.6777 30.0878C65.6841 29.9153 65.6738 29.6649 65.6731 29.4783C65.673 28.1624 64.7129 27.0954 63.5286 27.0955ZM60.8433 43.7294L60.2064 54.979L60.1605 55.002C60.1178 56.0084 59.2895 56.812 58.2726 56.812C57.8561 56.812 57.4716 56.6782 57.1591 56.45L57.1408 56.4591L47.9165 49.9201C50.7515 47.1324 54.3777 45.0723 58.5567 44.1235C59.3201 43.9502 60.0831 43.8215 60.8433 43.7294ZM66.2184 43.7294C71.0974 44.3295 75.6096 46.5388 79.0673 49.9247L69.9026 56.4225L69.8705 56.4087C69.0571 57.0029 67.911 56.8554 67.2769 56.0605C67.0172 55.7348 66.8809 55.3519 66.8645 54.9653L66.8553 54.9607L66.2184 43.7294ZM44.5714 54.1221L52.9938 61.6555L52.9846 61.7013C53.7448 62.3622 53.8569 63.509 53.2229 64.3041C52.9632 64.6298 52.6155 64.8482 52.2423 64.9502L52.2331 64.9869L41.4371 68.1029C40.8876 63.0784 42.0718 58.1942 44.5714 54.1221ZM82.4261 54.1267C83.6775 56.1551 84.6251 58.4205 85.1893 60.8765C85.7466 63.3031 85.8865 65.7253 85.6567 68.0662L74.8057 64.941L74.7965 64.8952C73.8249 64.6296 73.2277 63.6412 73.4539 62.6499C73.5466 62.2437 73.7622 61.9002 74.0542 61.6463L74.0496 61.6234L82.4261 54.1267ZM61.801 62.2375H65.2515L67.3961 64.9181L66.6262 68.2632L63.5286 69.7525L60.4217 68.2586L59.6519 64.9135L61.801 62.2375ZM72.8628 71.4113C73.0094 71.4039 73.1554 71.4171 73.2981 71.4434L73.3164 71.4205L84.4836 73.3084C82.8493 77.9 79.7219 81.8777 75.5434 84.5397L71.2086 74.069L71.2223 74.0507C70.8241 73.1255 71.2226 72.0404 72.1388 71.5992C72.3733 71.4862 72.6184 71.4236 72.8628 71.4113ZM54.1073 71.4571C54.9595 71.4691 55.7239 72.0606 55.9219 72.928C56.0146 73.3342 55.9695 73.7366 55.8165 74.092L55.8486 74.1332L51.5595 84.4984C47.5494 81.9252 44.3554 78.0723 42.6468 73.345L53.7178 71.4663L53.7361 71.4892C53.8599 71.4664 53.9855 71.4554 54.1073 71.4571ZM63.4598 75.9982C63.7567 75.9873 64.0579 76.0482 64.3442 76.1861C64.7195 76.3668 65.0095 76.6514 65.1919 76.9926H65.2332L70.6908 86.8538C69.9825 87.0912 69.2543 87.2941 68.5096 87.4632C64.3357 88.4109 60.175 88.1238 56.4076 86.84L61.8514 76.9972H61.8606C62.1872 76.3865 62.8067 76.0222 63.4598 75.9982Z" fill="white" stroke="white" stroke-width="0.25"/>
</svg>
