<svg width="128" height="128" viewBox="0 0 128 128" fill="none" xmlns="http://www.w3.org/2000/svg">
<rect width="128" height="128" fill="#333333"/>
<path d="M73.7885 12C73.052 12 72.3154 12.1631 71.6607 12.4078C73.052 13.3051 73.7885 14.5286 74.1977 15.9153C74.1977 16.0784 74.2796 16.2416 74.2796 16.4047C74.2796 16.5678 74.3614 16.731 74.3614 16.8941C74.4432 19.2596 73.7067 19.5859 73.2157 20.9725C72.3973 22.7671 72.6428 24.7247 73.6248 26.2745C73.7067 26.4376 73.7885 26.6824 73.9522 26.8455C72.8883 19.9937 78.617 19.0149 79.6809 16.8941C79.7628 15.018 78.2078 13.7945 76.9803 12.8973C75.7527 12.1631 74.7706 12 73.7885 12ZM82.3816 13.4682C82.2998 14.1208 82.3816 13.9576 82.2998 14.2839C82.2998 14.5286 82.2998 14.7733 82.218 15.018C82.1361 15.2627 82.1361 15.4259 82.0543 15.6706C81.9724 15.9153 81.8906 16.0784 81.8088 16.3231C81.7269 16.4863 81.6451 16.6494 81.5632 16.8941C81.4814 16.9757 81.3996 17.1388 81.3177 17.2204C81.2359 17.302 81.2359 17.3835 81.1541 17.4651C80.9904 17.6282 80.9085 17.8729 80.7449 18.0361L80.2538 18.5255C80.0901 18.6886 79.9265 18.8518 79.7628 18.9333C79.1899 19.3412 78.5352 19.6675 77.9623 20.0753C77.7986 20.2384 77.5531 20.32 77.3895 20.4831C77.2258 20.6463 77.0621 20.7278 76.8984 20.891L76.4074 21.3804C76.2437 21.5435 76.08 21.7067 75.9982 21.9514C75.8345 22.1145 75.7527 22.3592 75.589 22.5224C75.5072 22.7671 75.4253 22.9302 75.2616 23.1749C75.1798 23.4196 75.098 23.5827 75.0161 23.8275C74.9343 24.0722 74.8524 24.3169 74.8524 24.48C74.8524 24.5616 74.8524 24.7247 74.7706 24.8063C74.7706 24.8878 74.7706 25.051 74.6888 25.1325V26.2745C74.6888 26.5192 74.6888 26.6824 74.7706 26.9271C74.7706 27.1718 74.8524 27.3349 74.9343 27.5796C75.0161 27.8243 75.098 27.9875 75.1798 28.2322C75.2616 28.3953 75.3435 28.4769 75.3435 28.64L69.1237 26.2745C68.0598 25.9482 67.0777 25.7035 66.0138 25.4588C65.4409 25.2957 64.8681 25.2141 64.2952 25.051C62.6584 24.7247 61.0216 24.48 59.3848 24.3169H59.2212C57.5844 24.1537 56.0294 24.0722 54.3927 24.0722C53.1651 24.0722 52.0193 24.1537 50.8736 24.2353C49.2368 24.3169 47.6 24.5616 45.9632 24.8063L44.7356 25.051C43.9173 25.2141 43.0989 25.3773 42.2805 25.622C41.8713 25.7035 41.4621 25.8667 41.0529 25.9482C40.6437 26.1114 40.2345 26.2745 39.9071 26.4376C39.5798 26.6008 39.3343 26.6824 39.0069 26.8455C38.9251 26.8455 38.9251 26.8455 38.8432 26.9271C38.5977 27.0902 38.3522 27.1718 38.1067 27.3349C38.0248 27.3349 37.943 27.4165 37.943 27.4165C37.6156 27.5796 37.3701 27.7427 37.1246 27.8243C36.9609 27.9059 36.7154 27.9875 36.5517 28.069C36.4699 28.1506 36.3881 28.1506 36.3062 28.2322C36.0607 28.3953 35.8152 28.4769 35.5697 28.64C35.3241 28.8031 35.0786 28.8847 34.915 29.0478C34.7513 29.211 34.5058 29.2926 34.3421 29.4557C34.3421 29.4557 34.2602 29.4557 34.2602 29.5373C34.0966 29.6188 33.9329 29.782 33.7692 29.9451L33.6874 30.0267C33.5237 30.1082 33.4418 30.2714 33.2782 30.3529C33.1963 30.3529 33.1963 30.4345 33.1145 30.4345C32.9508 30.5161 32.869 30.6792 32.7053 30.7608C32.7053 30.8424 32.6235 30.8424 32.6235 30.8424L32.1324 31.3318L32.0506 31.4133L31.5595 31.9027C31.5595 31.9027 31.5595 31.9843 31.4777 31.9843L31.0685 32.3922C30.9867 32.4737 30.9048 32.4737 30.9048 32.5553L30.4138 33.0447C30.4138 33.1263 30.332 33.1263 30.332 33.2078L29.6772 33.8604L29.5954 33.942C29.1862 34.4314 28.6952 34.8392 28.2041 35.2471C27.7131 35.6549 27.2221 36.0627 26.6492 36.4706C26.0763 36.8784 25.5853 37.2047 25.0124 37.531C24.4395 37.8573 23.8667 38.102 23.2938 38.3467C22.7209 38.5914 22.1481 38.8361 21.5752 38.9992C20.4294 39.2439 19.2837 39.7333 18.3016 39.8149C18.3016 39.4071 18.0561 39.4886 17.8106 39.4886C17.5651 39.5702 17.3195 39.5702 17.1559 39.6518C16.9103 39.7333 16.7467 39.8149 16.5012 39.8965C16.2556 39.978 16.092 40.0596 15.8464 40.2227C15.6828 40.3859 15.4372 40.4675 15.2736 40.6306C15.1099 40.7937 14.8644 40.9569 14.7007 41.12C14.537 41.2831 14.2915 41.4463 14.1278 41.6094C13.9641 41.7725 13.8005 41.9357 13.6368 42.1804C13.4731 42.4251 13.3094 42.5882 13.2276 42.8329C13.0639 42.9961 12.9821 43.2408 12.8184 43.4855C12.7366 43.7302 12.5729 43.9749 12.491 44.2196L12.2455 44.9537C12.1637 45.1984 12.1637 45.3616 12.0818 45.6063V45.6878C12 45.9325 12 46.2588 12 46.422C12.0818 46.3404 12.0818 46.5035 12.0818 46.6667V46.9929C12.0818 47.1561 12.1637 47.3192 12.1637 47.4824C12.2455 47.6455 12.2455 47.8086 12.3274 47.9718C12.4092 48.1349 12.491 48.298 12.6547 48.4612C12.7366 48.6243 12.9002 48.7875 12.9821 48.9506C13.1457 49.1137 13.3094 49.2769 13.4731 49.3584C13.6368 49.5216 13.8005 49.6847 13.9641 49.7663C14.6189 50.3373 14.7825 50.5004 15.6009 50.9898C15.7646 51.0714 15.8464 51.1529 16.0101 51.2345H16.092V51.3976C16.092 51.6424 16.1738 51.8055 16.2556 52.0502C16.3375 52.2949 16.4193 52.5396 16.5012 52.7027L16.7467 53.1922C16.7467 53.2737 16.8285 53.2737 16.8285 53.3553C16.9103 53.6 17.074 53.7631 17.1559 53.9263C17.3195 54.0894 17.4014 54.3341 17.5651 54.4973L18.0561 54.9867L18.5471 55.4761H18.629C18.7926 55.6392 18.9563 55.7208 19.12 55.8839C19.2837 56.0471 19.5292 56.1286 19.6929 56.2102C19.8566 56.2918 20.1021 56.4549 20.3476 56.5365C20.5113 56.618 20.6749 56.6996 20.9205 56.6996C20.9205 56.6996 21.0023 56.6996 21.0023 56.7812C21.0841 56.7812 21.2478 56.8627 21.3297 56.8627C21.2478 58.331 21.2478 59.7176 21.4115 60.2071C21.657 60.778 22.8846 59.0651 24.0304 57.189C23.8667 59.0651 23.7848 61.2675 24.0304 61.92C24.3577 62.5726 25.9127 60.4518 27.3858 58.1678C46.5361 53.7631 64.0497 66.9773 65.932 85.6565C65.6046 82.72 62.0037 81.0886 60.2851 81.4965C59.4667 83.4541 58.0754 86.0643 55.8658 87.6141C56.0294 85.8196 55.9476 84.0251 55.6202 82.2306C55.0474 84.6776 53.9016 87.0431 52.2648 89.0008C49.7278 89.1639 47.109 87.9404 45.7996 86.0643C45.7177 85.9827 45.6359 85.8196 45.554 85.738C45.4722 85.5749 45.3904 85.3302 45.3085 85.1671C45.2267 85.0039 45.1448 84.7592 45.1448 84.5961V84.0251V83.6173C45.1448 83.4541 45.2267 83.2094 45.3085 83.0463C45.3904 82.8831 45.3904 82.6384 45.4722 82.4753C45.554 82.3122 45.6359 82.0674 45.7996 81.9043C46.2906 80.5992 46.2906 79.5388 45.3904 78.9678L44.8993 78.7231C44.8175 78.7231 44.6538 78.6416 44.572 78.6416C44.4901 78.6416 44.4083 78.56 44.3265 78.56C44.1628 78.4784 43.9173 78.4784 43.7536 78.3969C43.5899 78.3153 43.3444 78.3153 43.1807 78.3153C43.017 78.3153 42.7715 78.2337 42.6078 78.2337H42.1986C41.9531 78.2337 41.7894 78.2337 41.6258 78.3153C41.4621 78.3153 41.2166 78.3969 41.0529 78.3969C40.8892 78.4784 40.6437 78.4784 40.48 78.56C40.3163 78.6416 40.1527 78.7231 39.9071 78.8047L39.4161 79.0494C33.1145 83.1278 36.8791 92.7529 41.1347 95.5263C39.4979 95.8525 37.8612 96.1788 37.3701 96.5051L37.2883 96.5867C38.434 97.3208 39.6616 97.8918 40.971 98.3812C42.6897 98.9522 44.572 99.4416 45.3904 99.6863C47.6 100.176 49.8915 100.339 52.183 100.176C64.1315 99.36 73.9522 90.2243 75.7527 78.3153C75.8345 78.56 75.8345 78.8047 75.9163 79.0494C75.9982 79.5388 76.08 80.0282 76.1619 80.5992C76.2437 80.8439 76.2437 81.0886 76.2437 81.3333V81.4149C76.2437 81.6596 76.3255 81.9043 76.3255 82.149C76.3255 82.4753 76.4074 82.72 76.4074 83.0463V86.4722C76.4074 86.7169 76.3255 86.88 76.3255 87.1247V87.3694C76.3255 87.6141 76.2437 87.8588 76.2437 88.1851C76.1619 88.4298 76.1619 88.6745 76.08 88.9192V89.0008C75.9982 89.2455 75.9982 89.4902 75.9163 89.7349V89.8165C75.8345 90.0612 75.8345 90.3059 75.7527 90.5506V90.6322L75.5072 91.3663V91.4478C75.4253 91.6925 75.3435 92.0188 75.2616 92.2635C75.1798 92.5082 75.098 92.7529 74.9343 93.0792C74.8524 93.3239 74.7706 93.6502 74.6069 93.8949C74.5251 94.1396 74.3614 94.3843 74.2796 94.7106C74.1977 94.9553 74.034 95.2 73.9522 95.4447C73.9522 95.5263 73.8704 95.6078 73.8704 95.6078C73.8704 95.6078 73.8704 95.6894 73.7885 95.6894C72.0699 99.1969 69.4511 102.296 66.1775 104.744C65.932 104.907 65.7683 105.07 65.5228 105.233C65.4409 105.315 65.3591 105.315 65.3591 105.396C65.1954 105.559 64.9499 105.641 64.7862 105.804L64.8681 105.967C65.2773 105.885 65.6046 105.885 66.0138 105.804C66.7504 105.722 67.4051 105.559 68.1416 105.396C68.3053 105.396 68.5508 105.315 68.7145 105.233C68.8782 105.233 68.96 105.151 69.1237 105.151C69.2874 105.151 69.5329 105.07 69.6966 105.07C69.8603 104.988 70.0239 104.988 70.1876 104.907C72.8883 104.254 75.5072 103.357 78.0442 102.296C73.7067 108.169 67.978 112.9 61.2671 116C64.377 115.755 67.4869 115.266 70.515 114.369C81.3996 111.187 90.5655 103.846 96.0488 93.9765C94.903 100.176 92.4478 106.13 88.7651 111.351C91.3839 109.638 93.7573 107.598 95.9669 105.396C102.023 99.1153 106.033 91.04 107.343 82.4753C108.243 86.7169 108.57 91.1216 108.161 95.4447C127.721 68.2824 109.798 40.1412 102.269 32.7184C102.269 32.6369 102.187 32.6369 102.187 32.5553C102.187 32.8816 102.187 33.2078 102.105 33.5341C102.023 34.1867 101.941 34.7576 101.859 35.3286C101.696 35.8996 101.532 36.5522 101.368 37.1231C101.205 37.6941 100.959 38.2651 100.714 38.8361C100.468 39.4071 100.223 39.978 99.8952 40.4675C99.5679 40.9569 99.2405 41.5278 98.9131 42.0173C98.5858 42.5067 98.1766 42.9961 97.7674 43.4855C97.3582 43.9749 96.949 44.3827 96.458 44.8722C96.2124 45.1169 95.9669 45.3616 95.6396 45.5247C95.3941 45.6878 95.2304 45.851 94.9849 46.0957C94.4938 46.5035 94.0028 46.8298 93.4299 47.1561C92.9389 47.4824 92.366 47.8086 91.7931 48.0533L90.0745 48.7875C89.5016 49.0322 88.9288 49.1953 88.3559 49.3584C87.783 49.5216 87.1283 49.6847 86.5554 49.7663C85.9007 49.8478 85.3278 49.9294 84.755 50.011C84.3458 50.011 83.8547 50.0926 83.4455 50.0926C82.7908 50.0926 82.218 50.011 81.6451 50.011C80.9904 49.9294 80.4175 49.8478 79.8446 49.7663C79.1899 49.6847 78.617 49.5216 78.0442 49.2769C78.617 49.1953 79.2718 49.1953 79.8446 49.0322C80.4993 48.9506 81.0722 48.7875 81.6451 48.6243C82.218 48.4612 82.8727 48.298 83.3637 48.0533L85.0823 47.3192C85.6552 47.0745 86.1462 46.7482 86.7191 46.422C87.2101 46.0957 87.783 45.6878 88.2741 45.3616C88.7651 44.9537 89.2561 44.5459 89.6653 44.138C90.1564 43.7302 90.5655 43.2408 90.9747 42.8329C91.3839 42.3435 91.7931 41.8541 92.1205 41.3647C92.2023 41.2831 92.2023 41.2016 92.2842 41.12C92.5297 40.7122 92.857 40.2227 93.1026 39.8149C93.4299 39.2439 93.6754 38.7545 93.921 38.1835C94.1665 37.6126 94.412 37.0416 94.5757 36.4706L95.0667 34.7576C95.1485 34.1051 95.3122 33.5341 95.3122 32.9631C95.3941 32.3106 95.3941 31.7396 95.3941 31.1686C95.3941 30.7608 95.3941 30.2714 95.3122 29.8635C95.2304 29.211 95.1485 28.64 95.0667 28.069C94.9849 27.4165 94.8212 26.8455 94.6575 26.2745C94.4938 25.7035 94.2483 25.1325 94.0846 24.5616C93.8391 23.9906 93.5936 23.4196 93.3481 22.9302C93.0207 22.3592 92.7752 21.8698 92.4478 21.2988C92.1205 20.8094 91.7113 20.32 91.3839 19.8306C90.9747 19.3412 90.5655 18.9333 90.1564 18.4439C89.9108 18.1992 89.6653 17.9545 89.4198 17.7914C88.1922 16.8125 86.9646 15.9969 85.6552 15.1812C85.4915 15.0996 85.3278 15.018 85.0823 14.9365C84.0184 14.0392 83.2 13.7945 82.3816 13.4682Z" fill="#DF234F"/>
</svg>
