<svg width="128" height="128" viewBox="0 0 128 128" fill="none" xmlns="http://www.w3.org/2000/svg">
<rect width="128" height="128" fill="#333333"/>
<path d="M106.364 35.0441L68.4487 13.0218C66.0575 11.6594 62.9442 11.6594 60.5341 13.0218L22.2139 35.0441C19.7463 36.4641 18 39.1329 18 41.9875V85.9738C18 88.8284 19.7919 91.498 22.2595 92.9258L32.3838 98.678C37.2228 101.062 38.933 101.062 41.135 101.062C48.2998 101.062 52.3925 96.7282 52.3925 89.1689V45.7435C52.3925 45.1303 52.0735 44.2177 51.4717 44.2177H46.6369C46.0247 44.2177 44.6542 45.1303 44.6542 45.7427V89.1681C44.6542 92.519 41.6242 95.8535 35.9615 93.0212L25.5001 86.9895C25.1356 86.7917 24.8785 86.3935 24.8785 85.9738V41.9875C24.8785 41.573 25.3557 41.1567 25.7228 40.9443L63.9192 18.9598C64.276 18.7576 64.8005 18.7576 65.1565 18.9598L102.887 40.9391C103.248 41.1567 103.121 41.5601 103.121 41.9875V85.9738C103.121 86.3935 103.278 86.802 102.921 87.0041L65.0154 109.002C64.6904 109.197 64.2872 109.197 63.9312 109.002L54.2093 103.197C53.9161 103.027 53.5679 102.965 53.2867 103.123C50.5818 104.656 50.0831 104.86 47.5458 105.74C46.9215 105.958 46.0007 106.335 47.8983 107.399L60.6218 114.928C61.8365 115.63 63.2146 116 64.6173 116C66.0292 116 67.4117 115.634 68.6301 114.928L106.363 92.9258C108.831 91.4877 110 88.8284 110 85.9738V41.9875C110 39.1329 108.831 36.471 106.364 35.0441ZM76.3899 79.0037C66.3077 79.0037 64.0868 76.2213 63.3465 71.2062C63.2606 70.666 62.8023 70.0201 62.2529 70.0201H57.3253C56.7157 70.0201 56.2256 70.7598 56.2256 71.367C56.2256 77.7884 59.7156 85.5687 76.3908 85.5687C88.4617 85.5687 95.3823 80.8769 95.3823 72.5737C95.3823 64.341 89.8219 62.1805 78.1156 60.6306C66.2828 59.0662 65.0808 58.2757 65.0808 55.5028C65.0808 53.2167 66.0988 50.1678 74.8603 50.1678C82.6889 50.1678 85.5744 51.8484 86.7618 57.1267C86.8633 57.6229 87.3164 57.979 87.828 57.979H92.7754C93.0797 57.979 93.3704 57.856 93.5836 57.6384C93.7899 57.4045 93.8991 57.1112 93.8716 56.7964C93.1055 47.7071 87.0688 43.4712 74.8594 43.4712C63.9991 43.4712 57.5204 48.0589 57.5204 55.7488C57.5204 64.0899 63.9665 66.3949 74.3917 67.4261C86.8633 68.6492 87.8332 70.4725 87.8332 72.9263C87.8332 77.188 84.4128 79.0037 76.3899 79.0037Z" fill="#83CD29"/>
</svg>
