<svg width="128" height="128" viewBox="0 0 128 128" fill="none" xmlns="http://www.w3.org/2000/svg">
<rect width="128" height="128" fill="#333333"/>
<g clip-path="url(#clip0_1_68)">
<path d="M110.238 74.8912C110.183 74.7236 110.107 74.5636 110.012 74.4148C109.456 73.362 108.105 73.0476 105.983 73.4864C99.3696 74.8508 96.8088 74.0112 95.8804 73.41C101.248 65.2172 105.66 55.322 108.045 46.0912C109.13 41.8884 111.238 31.9964 108.534 27.1648C108.361 26.8341 108.159 26.5195 107.93 26.2248C102.772 19.6344 95.2028 16.0992 86.0396 16.002C80.0608 15.9388 74.9576 17.3864 73.5752 17.9196C72.8905 17.7918 72.2024 17.683 71.5116 17.5932C69.78 17.2796 68.0256 17.1087 66.266 17.082C61.5372 17.0084 57.4508 18.1388 54.0668 20.4444C50.6376 19.16 34.9116 13.8644 25.1792 20.7596C19.7436 24.6104 17.2344 31.4932 17.7208 41.2172C17.8844 44.4892 19.7484 54.5532 22.69 64.1916C24.5292 70.2176 26.4448 74.9992 28.4236 78.5196C30.6356 82.4964 32.9272 84.8928 35.2808 85.6776C37.0704 86.274 39.8116 86.254 42.7132 82.766C45.918 78.912 49.0744 75.4628 50.4916 73.9384C52.232 74.8804 54.1172 75.3884 56.0516 75.4472C56.052 75.4527 56.0525 75.4582 56.0532 75.4636C55.7164 75.8649 55.3868 76.2722 55.0644 76.6852C53.7088 78.406 53.4268 78.764 49.0636 79.6624C47.8228 79.9184 44.526 80.598 44.478 82.9084C44.468 83.398 44.6096 83.832 44.8456 84.2156C45.7532 85.908 48.532 86.6544 48.9056 86.748C54.2436 88.082 58.9232 87.116 62.3912 84.0332C62.3232 92.9572 62.7012 101.703 63.7728 104.383C64.6576 106.594 66.82 112.001 73.6496 112C74.6516 112 75.7548 111.884 76.968 111.624C84.0956 110.095 87.1908 106.945 88.388 100C88.9892 96.5172 89.9944 88.4988 90.5432 83.5952C90.6108 83.314 90.686 83.1124 90.7712 83.0504C90.774 83.0484 91.05 82.862 92.48 83.1732C92.5385 83.1859 92.5977 83.195 92.6572 83.2004L93.6728 83.2896L93.7324 83.2936C97.1196 83.4472 101.378 82.7232 103.857 81.5704C106.432 80.3752 111.08 77.4412 110.238 74.8912ZM25.484 63.506C22.51 53.7628 20.7724 43.9656 20.6348 41.2184C20.2004 32.5328 22.3032 26.4868 26.884 23.2476C34.2308 18.0532 46.2432 21.0844 51.316 22.7276C51.3032 22.7404 51.2896 22.752 51.2768 22.7652C43.1816 30.9412 43.3736 44.9092 43.3936 45.7632C43.3928 46.0924 43.42 46.5588 43.4584 47.2004C43.5976 49.5496 43.8568 53.922 43.1644 58.874C42.5208 63.4756 43.9392 67.9796 47.0556 71.2308C47.378 71.5672 47.7148 71.8832 48.0628 72.1804C46.6756 73.666 43.6612 76.9508 40.4528 80.8108C38.182 83.5408 36.614 83.0176 36.0984 82.8456C34.5308 82.3228 32.8464 80.4972 31.146 77.5564C29.2276 74.2004 27.292 69.4296 25.484 63.506ZM49.5128 83.8544C48.8284 83.6832 48.2044 83.4016 47.784 83.1456C48.1396 82.988 48.7336 82.7848 49.7172 82.582C54.8504 81.5256 55.6432 80.7796 57.3744 78.5812C57.7712 78.0772 58.2208 77.5064 58.8436 76.8108C58.9776 76.6606 59.0781 76.4836 59.1384 76.2916C59.8216 75.6864 60.228 75.852 60.886 76.1248C61.51 76.3832 62.1172 77.1648 62.364 78.0256C62.4804 78.432 62.6116 79.2036 62.1832 79.8032C58.566 84.8664 53.2968 84.8008 49.5128 83.8544ZM57.8888 67.9024L57.6788 68.4664C57.1468 69.8928 56.652 71.2188 56.3452 72.4784C53.6756 72.47 51.078 71.3296 49.1032 69.2688C46.5916 66.6484 45.4508 63.0032 45.9732 59.2672C46.7044 54.0356 46.4344 49.48 46.2892 47.0328C46.2692 46.69 46.2512 46.39 46.2404 46.1532C47.4232 45.1048 52.904 42.1684 56.812 43.0636C58.5956 43.4724 59.6824 44.6864 60.134 46.7756C62.4724 57.5908 60.4436 62.0984 58.8132 65.7208C58.4772 66.4672 58.16 67.1724 57.8888 67.9024ZM87.3436 86.1924C87.276 86.8996 87.2004 87.6964 87.0964 88.576L86.5124 90.3292C86.4661 90.4682 86.4415 90.6135 86.4396 90.76C86.416 92.6588 86.2236 93.3556 85.9796 94.2372C85.726 95.154 85.4384 96.1936 85.262 98.4672C84.822 104.124 81.7492 107.374 75.5932 108.693C69.5312 109.994 68.456 106.706 67.5084 103.806C67.4114 103.502 67.3088 103.2 67.2008 102.9C66.3392 100.557 66.4364 97.2524 66.5712 92.6796C66.6372 90.4348 66.4716 85.0744 65.2504 82.0948C65.268 80.922 65.2928 79.7312 65.3264 78.5276C65.3305 78.3751 65.3098 78.223 65.2652 78.0772C65.2265 77.7961 65.1679 77.518 65.0896 77.2452C64.5992 75.532 63.4044 74.0988 61.9708 73.5048C61.4012 73.2688 60.3556 72.836 59.0996 73.1572C59.3676 72.0532 59.832 70.8072 60.3356 69.4576L60.5472 68.8896C60.7852 68.2496 61.0832 67.5868 61.3992 66.8848C63.1052 63.0944 65.4416 57.9036 62.9056 46.176C61.956 41.7836 58.784 39.6388 53.976 40.1368C51.0932 40.4352 48.4564 41.5984 47.1408 42.2652C46.8771 42.3989 46.616 42.5377 46.3576 42.6816C46.7248 38.256 48.112 29.9852 53.3004 24.7524C53.6858 24.3641 54.0908 23.9956 54.5136 23.6484C54.7236 23.6075 54.9215 23.5194 55.0924 23.3908C58.102 21.1084 61.8704 19.9884 66.3004 20.0608C67.9368 20.0876 69.5072 20.1964 70.9972 20.3848C78.7532 21.8024 83.9728 26.172 87.1408 29.9156C90.398 33.7648 92.1616 37.6416 92.8656 39.7328C87.5728 39.1944 83.972 40.24 82.1468 42.8488C78.1764 48.5244 84.3188 59.5404 87.2712 64.8344C87.8124 65.8048 88.28 66.6432 88.4268 66.9996C89.388 69.3296 90.6328 70.8848 91.5416 72.0204C91.82 72.3684 92.0904 72.706 92.2956 73.0004C90.6924 73.4624 87.8124 74.5304 88.0748 79.8684C88.0256 80.4936 87.9056 81.656 87.7412 83.1276C87.5568 83.9584 87.4604 84.9688 87.3436 86.1924ZM90.9056 79.708C90.7436 76.3816 91.982 76.034 93.2924 75.666C93.4737 75.6163 93.6538 75.5622 93.8324 75.5036C94.0015 75.6534 94.1808 75.791 94.3692 75.9156C96.6504 77.4216 100.698 77.6008 106.396 76.4532C105.59 77.1608 104.321 78.0508 102.583 78.8576C100.944 79.6188 98.2004 80.1896 95.594 80.312C92.7152 80.4464 91.2504 79.9892 90.9056 79.708ZM93.1836 42.6232C93.16 44.0264 92.9668 45.3 92.762 46.63C92.542 48.0604 92.314 49.5396 92.2564 51.3348C92.1996 53.082 92.418 54.8984 92.6292 56.6552C93.0556 60.2032 93.4932 63.8564 91.7992 67.4608C91.518 66.9624 91.2674 66.4473 91.0488 65.9184C90.838 65.408 90.3812 64.588 89.7484 63.4536C87.286 59.0372 81.5188 48.6952 84.4712 44.4752C85.9892 42.3044 89.8344 42.2108 93.1836 42.6232ZM94.0972 70.678C93.9843 70.5342 93.8706 70.391 93.756 70.2484L93.614 70.0708C96.5188 65.2728 95.9508 60.526 95.4452 56.3168C95.2376 54.5896 95.0416 52.9584 95.0912 51.4264C95.1428 49.802 95.3576 48.4092 95.5652 47.062C95.8208 45.402 96.0804 43.6848 96.0088 41.66C96.0624 41.4476 96.084 41.1968 96.056 40.8992C95.8732 38.9572 93.6564 33.1472 89.1384 27.8872C86.708 25.058 83.18 21.8984 78.3828 19.7292C80.4832 19.3028 83.314 18.9152 86.4804 18.9856C94.6864 19.168 101.179 22.2396 105.777 28.1152C105.875 28.2428 105.964 28.3767 106.044 28.516C108.936 33.9384 104.939 53.6164 94.0972 70.678ZM58.8308 46.2132C58.7308 46.9308 57.5952 47.9032 56.3464 47.9032C56.2382 47.9033 56.13 47.8958 56.0228 47.8808C55.2736 47.7768 54.5168 47.3048 53.9992 46.6184C53.816 46.3764 53.518 45.9064 53.5772 45.4808C53.5992 45.3204 53.6816 45.0868 53.9472 44.8856C54.42 44.528 55.3544 44.3952 56.3856 44.5388C57.6508 44.7152 58.956 45.314 58.8308 46.2132ZM90.5528 44.5676C90.5972 44.8844 90.3568 45.3716 89.9404 45.8084C89.6672 46.0952 89.0924 46.5928 88.3088 46.7012C88.2094 46.715 88.1092 46.722 88.0088 46.722C86.8348 46.722 85.8432 45.7844 85.766 45.2352C85.67 44.5292 86.8224 43.9928 88.0104 43.8272C89.1984 43.6616 90.4548 43.8624 90.5528 44.5676Z" fill="white"/>
</g>
<defs>
<clipPath id="clip0_1_68">
<rect width="96" height="96" fill="white" transform="translate(16 16)"/>
</clipPath>
</defs>
</svg>
