<svg width="128" height="128" viewBox="0 0 128 128" fill="none" xmlns="http://www.w3.org/2000/svg">
<rect width="128" height="128" fill="#333333"/>
<path d="M103.227 89.1392L70.2112 19.026C69.3832 17.2732 67.6552 16.1168 65.6968 16.0096C63.6876 15.8924 61.8876 16.8616 60.872 18.5108L25.064 76.5084C23.9548 78.3156 23.9768 80.5448 25.1272 82.3304L42.6308 109.445C43.674 111.063 45.4816 112 47.36 112C47.8928 112 48.428 111.925 48.9548 111.769L99.7624 96.742C101.319 96.2816 102.591 95.1804 103.257 93.7208C103.923 92.2612 103.91 90.5896 103.227 89.1392ZM95.8348 92.1468L52.7256 104.897C51.4088 105.287 50.1464 104.148 50.4232 102.819L65.8236 29.0648C66.1116 27.6856 68.018 27.4664 68.6196 28.7436L97.1348 89.2956C97.6724 90.438 97.0588 91.7852 95.8348 92.1468Z" fill="white"/>
</svg>
