<svg width="128" height="128" viewBox="0 0 128 128" fill="none" xmlns="http://www.w3.org/2000/svg">
<rect width="128" height="128" fill="#333333"/>
<g clip-path="url(#clip0_1_84)">
<path d="M31.924 16C27.7046 16.0127 23.6616 17.6944 20.678 20.678C17.6944 23.6616 16.0127 27.7046 16 31.924L16 96.08C16.0137 100.299 17.6959 104.341 20.6794 107.323C23.6629 110.306 27.7053 111.987 31.924 112H75.856L64 83.2L55.4 101.384H31.92C29.04 101.384 26.612 98.952 26.612 96.076V31.92C26.612 29.04 29.044 26.612 31.92 26.612H96.08C98.96 26.612 101.388 29.044 101.388 31.92V96.08C101.388 98.96 98.956 101.388 96.08 101.388H82.16L86.52 112H96.072C100.292 111.988 104.336 110.307 107.321 107.323C110.305 104.34 111.987 100.296 112 96.076V31.92C111.986 27.7013 110.304 23.6593 107.321 20.6766C104.337 17.6939 100.295 16.0127 96.076 16L31.924 16ZM49.22 32.868V48.3L62.584 40.58L49.22 32.868ZM78.78 32.868L65.416 40.584L78.776 48.3L78.78 32.868ZM64 41.4L49.22 49.932L64 58.468L78.78 49.932L64 41.4ZM48.416 51.328V68.392L63.196 76.924V59.86L48.416 51.328ZM79.584 51.328L64.8 59.86V76.924L79.58 68.392L79.584 51.328ZM47 52.144L33.64 59.864L47 67.576V52.144ZM81 52.144V67.576L94.36 59.86L81 52.144ZM48.416 70.024V85.46L61.78 77.74L48.416 70.024ZM79.584 70.024L66.22 77.744L79.58 85.46L79.584 70.024Z" fill="white"/>
</g>
<defs>
<clipPath id="clip0_1_84">
<rect width="96" height="96" fill="white" transform="translate(16 16)"/>
</clipPath>
</defs>
</svg>
