<svg width="128" height="128" viewBox="0 0 128 128" fill="none" xmlns="http://www.w3.org/2000/svg">
<rect width="128" height="128" fill="#333333"/>
<path d="M78.7795 32.8676L64 41.4005L78.7795 49.9335V32.8676Z" fill="#4695EB"/>
<path d="M49.2205 32.8676V49.9335L64 41.4005L49.2205 32.8676Z" fill="#FF004A"/>
<path d="M78.7795 49.9335L64 41.4005L49.2205 49.9335L64 58.4664L78.7795 49.9335Z" fill="white"/>
<path d="M33.6369 59.8604L48.4164 68.3923V51.3274L33.6369 59.8604Z" fill="#4695EB"/>
<path d="M48.4164 85.4582L63.195 76.9252L48.4164 68.3923V85.4582Z" fill="#FF004A"/>
<path d="M48.4164 51.3274V68.3923L63.195 76.9252V59.8604L48.4164 51.3274Z" fill="white"/>
<path d="M79.5836 85.4582V68.3923L64.805 76.9252L79.5836 85.4582Z" fill="#4695EB"/>
<path d="M94.3631 59.8604L79.5836 51.3274V68.3923L94.3631 59.8604Z" fill="#FF004A"/>
<path d="M64.805 76.9252L79.5836 68.3923V51.3274L64.805 59.8604V76.9252Z" fill="white"/>
<path d="M96.0755 16H31.9245C23.1662 16 16 23.1662 16 31.9245V96.0755C16 104.834 23.1662 112 31.9245 112H75.8572L64 83.1991L55.3976 101.386H31.9245C29.0474 101.386 26.6145 98.9526 26.6145 96.0755V31.9245C26.6145 29.0474 29.0474 26.6145 31.9245 26.6145H96.0755C98.9526 26.6145 101.386 29.0474 101.386 31.9245V96.0755C101.386 98.9526 98.9526 101.386 96.0755 101.386H82.1555L86.5252 112H96.0755C104.834 112 112 104.834 112 96.0755V31.9245C112 23.1662 104.834 16 96.0755 16Z" fill="#4695EB"/>
</svg>
