<svg width="128" height="128" viewBox="0 0 128 128" fill="none" xmlns="http://www.w3.org/2000/svg">
<rect width="128" height="128" fill="#3178C6"/>
<path d="M73.2917 64.0169C73.2917 66.4871 72.3107 68.8562 70.5643 70.6033C68.818 72.3504 66.4494 73.3325 63.9792 73.3336C61.5082 73.3336 59.1385 72.352 57.3913 70.6048C55.6441 68.8576 54.6625 66.4878 54.6625 64.0169C54.6625 61.5467 55.6435 59.1776 57.3898 57.4305C59.1361 55.6834 61.5048 54.7014 63.975 54.7002C66.4459 54.7002 68.8157 55.6818 70.5629 57.429C72.3101 59.1763 73.2917 61.546 73.2917 64.0169ZM84.325 19.4753C78.7167 19.4753 71.3792 23.4753 63.9583 30.4003C56.5417 23.5128 49.2 19.5586 43.5958 19.5586C41.8875 19.5586 40.3333 19.9461 38.9875 20.7169C33.2583 24.0211 31.975 34.3169 34.9333 47.2378C22.25 51.1544 14 57.4169 14 64.0169C14 70.6419 22.2917 76.9211 35.0125 80.8086C32.0792 93.7794 33.3875 104.092 39.1292 107.392C40.4625 108.171 42.0042 108.538 43.7208 108.538C49.325 108.538 56.6667 104.538 64.0875 97.6044C71.5042 104.496 78.8458 108.45 84.45 108.45C86.1583 108.45 87.7125 108.075 89.0583 107.304C94.7833 104.004 96.0708 93.7086 93.1125 80.7836C105.75 76.9002 114 70.6252 114 64.0169C114 57.3919 105.708 51.1128 92.9875 47.2169C95.9208 34.2586 94.6125 23.9378 88.8708 20.6336C87.5458 19.8669 86.0083 19.4794 84.325 19.4753ZM84.3042 24.0169V24.0419C85.2417 24.0419 85.9958 24.2253 86.6292 24.5711C89.4042 26.1628 90.6083 32.2169 89.6708 40.0044C89.4458 41.9211 89.0792 43.9419 88.6292 46.0044C84.6292 45.0211 80.2708 44.2669 75.6833 43.7794C72.9333 40.0086 70.0792 36.5836 67.2042 33.5836C73.8375 27.4169 80.0667 24.0336 84.3083 24.0211L84.3042 24.0169ZM43.5958 24.1003C47.8125 24.1003 54.0708 27.4669 60.7208 33.6003C57.8625 36.6003 55.0125 40.0044 52.3042 43.7753C47.6917 44.2628 43.3292 45.0169 39.3333 46.0169C38.8667 43.9753 38.5208 42.0003 38.275 40.1003C37.3167 32.3169 38.5 26.2669 41.25 24.6544C42.0417 24.2794 42.9167 24.1211 43.5958 24.1003ZM63.9375 36.8086C65.8333 38.7586 67.7292 40.9419 69.6042 43.3253C67.7708 43.2419 65.8958 43.1836 64 43.1836C62.0833 43.1836 60.1875 43.2253 58.3333 43.3253C60.1667 40.9419 62.0625 38.7628 63.9375 36.8086ZM64 47.7503C67.0833 47.7503 70.1542 47.8919 73.175 48.1377C74.8667 50.5627 76.5167 53.1503 78.1042 55.8878C79.6542 58.5544 81.0625 61.2627 82.3458 63.9961C81.0625 66.7252 79.6542 69.4544 78.125 72.1211C76.5417 74.8711 74.9042 77.4878 73.2083 79.9128C70.175 80.1753 67.1 80.3211 64 80.3211C60.9167 80.3211 57.8458 80.1753 54.825 79.9336C53.1333 77.5086 51.4833 74.9169 49.8958 72.1836C48.3458 69.5169 46.9375 66.8086 45.6542 64.0752C46.9167 61.3377 48.3458 58.6044 49.875 55.9336C51.4583 53.1836 53.0958 50.5753 54.7917 48.1503C57.825 47.8836 60.9 47.7419 64 47.7419V47.7503ZM48.8542 48.8086C47.8542 50.3794 46.8542 51.9878 45.9208 53.6419C44.9833 55.2669 44.1083 56.9002 43.275 58.5336C42.1708 55.8002 41.2333 53.0753 40.4583 50.4211C43.125 49.7961 45.9375 49.2378 48.8542 48.8086ZM79.1042 48.8086C82 49.2378 84.7917 49.7669 87.4625 50.4211C86.7125 53.0544 85.775 55.7627 84.7125 58.4752C83.8792 56.8502 83.0042 55.2128 82.0458 53.5836C81.1083 51.9503 80.1083 50.3586 79.1083 48.8086H79.1042ZM91.8667 51.6211C93.8833 52.2461 95.8 52.9419 97.5958 53.6961C104.812 56.7794 109.479 60.8128 109.479 64.0128C109.458 67.2128 104.792 71.2627 97.575 74.3252C95.825 75.0752 93.9083 75.7502 91.9292 76.3794C90.7625 72.3877 89.2375 68.2294 87.3458 63.9628C89.2208 59.7253 90.7208 55.5878 91.8667 51.6128V51.6211ZM36.0542 51.6378C37.2125 55.6378 38.7417 59.7919 40.6375 64.0544C38.7625 68.2919 37.2542 72.4294 36.1125 76.4044C34.0958 75.7794 32.1792 75.0794 30.4042 74.3211C23.1875 71.2503 18.5208 67.2128 18.5208 64.0128C18.5208 60.8128 23.1875 56.7544 30.4042 53.6961C32.1542 52.9461 34.0708 52.2711 36.0542 51.6378ZM84.7125 69.4711C85.8167 72.2086 86.7542 74.9377 87.5292 77.5877C84.8625 78.2419 82.0458 78.7961 79.1292 79.2127C80.1292 77.6502 81.1292 76.0377 82.0667 74.3877C83.0042 72.7627 83.875 71.1044 84.7125 69.4711ZM43.275 69.5544C44.1083 71.1878 44.9833 72.8169 45.9417 74.4503C46.9 76.0753 47.8792 77.6669 48.8792 79.2127C45.9833 78.7877 43.1917 78.2544 40.5208 77.6044C41.2708 74.9794 42.2125 72.2627 43.2708 69.5502L43.275 69.5544ZM88.6667 82.0002C89.1333 84.0544 89.5 86.0336 89.725 87.9294C90.6833 95.7128 89.5 101.763 86.75 103.379C86.1375 103.754 85.3417 103.913 84.4042 103.913C80.1875 103.913 73.9292 100.55 67.2792 94.4128C70.1375 91.4128 72.9875 88.0127 75.6958 84.2461C80.3083 83.7544 84.6708 83.0002 88.6667 82.0002ZM39.375 82.0419C43.375 83.0169 47.7333 83.7711 52.3208 84.2586C55.0708 88.0294 57.925 91.4544 60.8 94.4503C54.1542 100.629 47.9167 104.013 43.675 104.013C42.7583 103.992 41.9833 103.804 41.3708 103.463C38.5958 101.879 37.3917 95.8211 38.3292 88.0336C38.5542 86.1169 38.925 84.1002 39.375 82.0419ZM58.375 84.7086C60.2083 84.7919 62.0833 84.8502 63.9792 84.8502C65.8958 84.8502 67.7917 84.8086 69.6458 84.7086C67.8125 87.0919 65.9167 89.2711 64.0417 91.2294C62.1458 89.2711 60.25 87.0919 58.375 84.7086Z" fill="white"/>
</svg>
