<svg width="128" height="128" viewBox="0 0 128 128" fill="none" xmlns="http://www.w3.org/2000/svg">
<rect width="128" height="128" fill="#333333"/>
<path d="M72.92 64.016C72.92 66.3874 71.9782 68.6617 70.3018 70.339C68.6253 72.0162 66.3514 72.9589 63.98 72.96C61.6079 72.96 59.333 72.0177 57.6556 70.3404C55.9783 68.663 55.036 66.3881 55.036 64.016C55.036 61.6446 55.9778 59.3703 57.6542 57.6931C59.3307 56.0158 61.6046 55.0731 63.976 55.072C66.3481 55.072 68.623 56.0143 70.3004 57.6916C71.9777 59.369 72.92 61.6439 72.92 64.016ZM83.512 21.256C78.128 21.256 71.084 25.096 63.96 31.744C56.84 25.132 49.792 21.336 44.412 21.336C42.772 21.336 41.28 21.708 39.988 22.448C34.488 25.62 33.256 35.504 36.096 47.908C23.92 51.668 16 57.68 16 64.016C16 70.376 23.96 76.404 36.172 80.136C33.356 92.588 34.612 102.488 40.124 105.656C41.404 106.404 42.884 106.756 44.532 106.756C49.912 106.756 56.96 102.916 64.084 96.26C71.204 102.876 78.252 106.672 83.632 106.672C85.272 106.672 86.764 106.312 88.056 105.572C93.552 102.404 94.788 92.52 91.948 80.112C104.08 76.384 112 70.36 112 64.016C112 57.656 104.04 51.628 91.828 47.888C94.644 35.448 93.388 25.54 87.876 22.368C86.604 21.632 85.128 21.26 83.512 21.256ZM83.492 25.616V25.64C84.392 25.64 85.116 25.816 85.724 26.148C88.388 27.676 89.544 33.488 88.644 40.964C88.428 42.804 88.076 44.744 87.644 46.724C83.804 45.78 79.62 45.056 75.216 44.588C72.576 40.968 69.836 37.68 67.076 34.8C73.444 28.88 79.424 25.632 83.496 25.62L83.492 25.616ZM44.412 25.696C48.46 25.696 54.468 28.928 60.852 34.816C58.108 37.696 55.372 40.964 52.772 44.584C48.344 45.052 44.156 45.776 40.32 46.736C39.872 44.776 39.54 42.88 39.304 41.056C38.384 33.584 39.52 27.776 42.16 26.228C42.92 25.868 43.76 25.716 44.412 25.696ZM63.94 37.896C65.76 39.768 67.58 41.864 69.38 44.152C67.62 44.072 65.82 44.016 64 44.016C62.16 44.016 60.34 44.056 58.56 44.152C60.32 41.864 62.14 39.772 63.94 37.896ZM64 48.4C66.96 48.4 69.908 48.536 72.808 48.772C74.432 51.1 76.016 53.584 77.54 56.212C79.028 58.772 80.38 61.372 81.612 63.996C80.38 66.616 79.028 69.236 77.56 71.796C76.04 74.436 74.468 76.948 72.84 79.276C69.928 79.528 66.976 79.668 64 79.668C61.04 79.668 58.092 79.528 55.192 79.296C53.568 76.968 51.984 74.48 50.46 71.856C48.972 69.296 47.62 66.696 46.388 64.072C47.6 61.444 48.972 58.82 50.44 56.256C51.96 53.616 53.532 51.112 55.16 48.784C58.072 48.528 61.024 48.392 64 48.392V48.4ZM49.46 49.416C48.5 50.924 47.54 52.468 46.644 54.056C45.744 55.616 44.904 57.184 44.104 58.752C43.044 56.128 42.144 53.512 41.4 50.964C43.96 50.364 46.66 49.828 49.46 49.416ZM78.5 49.416C81.28 49.828 83.96 50.336 86.524 50.964C85.804 53.492 84.904 56.092 83.884 58.696C83.084 57.136 82.244 55.564 81.324 54C80.424 52.432 79.464 50.904 78.504 49.416H78.5ZM90.752 52.116C92.688 52.716 94.528 53.384 96.252 54.108C103.18 57.068 107.66 60.94 107.66 64.012C107.64 67.084 103.16 70.972 96.232 73.912C94.552 74.632 92.712 75.28 90.812 75.884C89.692 72.052 88.228 68.06 86.412 63.964C88.212 59.896 89.652 55.924 90.752 52.108V52.116ZM37.172 52.132C38.284 55.972 39.752 59.96 41.572 64.052C39.772 68.12 38.324 72.092 37.228 75.908C35.292 75.308 33.452 74.636 31.748 73.908C24.82 70.96 20.34 67.084 20.34 64.012C20.34 60.94 24.82 57.044 31.748 54.108C33.428 53.388 35.268 52.74 37.172 52.132ZM83.884 69.252C84.944 71.88 85.844 74.5 86.588 77.044C84.028 77.672 81.324 78.204 78.524 78.604C79.484 77.104 80.444 75.556 81.344 73.972C82.244 72.412 83.08 70.82 83.884 69.252ZM44.104 69.332C44.904 70.9 45.744 72.464 46.664 74.032C47.584 75.592 48.524 77.12 49.484 78.604C46.704 78.196 44.024 77.684 41.46 77.06C42.18 74.54 43.084 71.932 44.1 69.328L44.104 69.332ZM87.68 81.28C88.128 83.252 88.48 85.152 88.696 86.972C89.616 94.444 88.48 100.252 85.84 101.804C85.252 102.164 84.488 102.316 83.588 102.316C79.54 102.316 73.532 99.088 67.148 93.196C69.892 90.316 72.628 87.052 75.228 83.436C79.656 82.964 83.844 82.24 87.68 81.28ZM40.36 81.32C44.2 82.256 48.384 82.98 52.788 83.448C55.428 87.068 58.168 90.356 60.928 93.232C54.548 99.164 48.56 102.412 44.488 102.412C43.608 102.392 42.864 102.212 42.276 101.884C39.612 100.364 38.456 94.548 39.356 87.072C39.572 85.232 39.928 83.296 40.36 81.32ZM58.6 83.88C60.36 83.96 62.16 84.016 63.98 84.016C65.82 84.016 67.64 83.976 69.42 83.88C67.66 86.168 65.84 88.26 64.04 90.14C62.22 88.26 60.4 86.168 58.6 83.88Z" fill="white"/>
</svg>
