<svg width="128" height="128" viewBox="0 0 128 128" fill="none" xmlns="http://www.w3.org/2000/svg">
<rect width="128" height="128" fill="#333333"/>
<path d="M64 73.5934C69.3163 73.5934 73.6261 69.2983 73.6261 64C73.6261 58.7017 69.3163 54.4066 64 54.4066C58.6837 54.4066 54.3739 58.7017 54.3739 64C54.3739 69.2983 58.6837 73.5934 64 73.5934Z" fill="#61DAFB"/>
<path d="M113.304 64.0009C113.304 62.1802 112.344 60.1773 110.021 58.0873C107.698 55.9972 104.202 54.0067 99.6851 52.288C90.6676 48.8568 78.0518 46.6851 64 46.6851C49.9482 46.6851 37.3324 48.8568 28.3149 52.288C23.798 54.0067 20.3022 55.9972 17.9789 58.0873C15.6563 60.1773 14.6957 62.1802 14.6957 64.0009C14.696 65.8216 15.656 67.8246 17.9789 69.9145C20.3022 72.0046 23.798 73.9951 28.3149 75.7139C37.3324 79.1449 49.9485 81.3167 64 81.3167C78.0515 81.3167 90.6676 79.1449 99.6851 75.7139C104.202 73.9951 107.698 72.0046 110.021 69.9145C112.344 67.8246 113.304 65.8216 113.304 64.0009ZM118 64.0009C118 67.607 116.07 70.7754 113.167 73.3877C110.263 76.0005 106.189 78.2448 101.359 80.0828C91.6822 83.7647 78.4737 85.9964 64 85.9964C49.5263 85.9964 36.3178 83.7647 26.6411 80.0828C21.8108 78.2448 17.7375 76.0005 14.8332 73.3877C11.9295 70.7754 10.0003 67.607 10 64.0009C10 60.3948 11.9298 57.2265 14.8332 54.6141C17.7375 52.0013 21.8108 49.7525 26.6411 47.9145C36.3177 44.2328 49.5267 42.0054 64 42.0054C78.4732 42.0054 91.6823 44.2328 101.359 47.9145C106.189 49.7525 110.263 52.0013 113.167 54.6141C116.07 57.2265 118 60.3948 118 64.0009Z" fill="#61DAFB"/>
<path d="M88.6514 106.554C90.2335 105.644 91.4937 103.813 92.1485 100.764C92.8032 97.7134 92.7849 93.701 92.0201 88.9432C90.4929 79.4447 86.0721 67.4704 79.0462 55.3426C72.0204 43.2147 63.8254 33.4121 56.3349 27.3448C52.5829 24.3057 49.1053 22.2838 46.1275 21.3237C43.15 20.364 40.9292 20.5364 39.347 21.4468C37.765 22.3574 36.5045 24.1875 35.8499 27.2373C35.1952 30.2875 35.2135 34.2999 35.9783 39.0577C37.5056 48.5561 41.9264 60.5308 48.9522 72.6584C55.9779 84.7859 64.1732 94.5888 71.6635 100.656C75.4155 103.695 78.8931 105.717 81.8709 106.677C84.8485 107.637 87.0691 107.464 88.6514 106.554ZM90.9992 110.607C87.8654 112.41 84.1476 112.329 80.4257 111.129C76.7031 109.929 72.7162 107.535 68.7038 104.285C60.666 97.7744 52.1225 87.4902 44.8856 74.9982C37.6488 62.5062 32.9838 49.9903 31.345 39.7976C30.527 34.7096 30.4405 30.0719 31.2589 26.2589C32.0771 22.4466 33.8658 19.1973 36.9992 17.394C40.1328 15.591 43.8509 15.6724 47.5727 16.8721C51.2953 18.0723 55.2862 20.4635 59.2986 23.7135C67.3361 30.2243 75.8762 40.5111 83.1128 53.0027C90.3494 65.4943 95.0184 78.0085 96.6574 88.201C97.4754 93.289 97.5579 97.929 96.7395 101.742C95.9211 105.554 94.1328 108.804 90.9992 110.607Z" fill="#61DAFB"/>
<path d="M39.347 106.553C40.9292 107.464 43.15 107.636 46.1275 106.676C49.1053 105.716 52.5829 103.694 56.3349 100.655C63.8254 94.5879 72.0204 84.7853 79.0462 72.6574C86.0721 60.5296 90.4929 48.5553 92.0201 39.0568C92.7849 34.299 92.8032 30.2866 92.1485 27.2364C91.4937 24.1868 90.2335 22.3562 88.6514 21.4458C87.0691 20.5358 84.8485 20.3629 81.8709 21.3228C78.8931 22.2829 75.4155 24.3048 71.6635 27.3439C64.1732 33.4112 55.9779 43.2141 48.9522 55.3417C41.9264 67.4692 37.5056 79.4439 35.9783 88.9423C35.2135 93.7001 35.1952 97.7125 35.8499 100.763C36.5045 103.813 37.765 105.643 39.347 106.553ZM36.9992 110.606C33.8658 108.803 32.0771 105.553 31.2589 101.741C30.4405 97.9281 30.527 93.2904 31.345 88.2024C32.9838 78.0097 37.6487 65.4938 44.8856 53.0018C52.1225 40.5098 60.666 30.2256 68.7038 23.7148C72.7162 20.4649 76.7031 18.0714 80.4257 16.8712C84.1476 15.6712 87.8654 15.5903 90.9992 17.3931C94.1328 19.1961 95.9211 22.4459 96.7395 26.258C97.5579 30.071 97.4754 34.711 96.6574 39.799C95.0184 49.9915 90.3494 62.5057 83.1128 74.9973C75.8762 87.4889 67.3361 97.7757 59.2985 104.287C55.2862 107.536 51.2953 109.928 47.5727 111.128C43.8509 112.328 40.1328 112.409 36.9992 110.606Z" fill="#61DAFB"/>
</svg>
