<svg width="128" height="128" viewBox="0 0 128 128" fill="none" xmlns="http://www.w3.org/2000/svg">
<rect width="128" height="128" fill="#333333"/>
<path d="M83.9816 80.0467C76.8799 94.5826 64.4439 104.363 47.9915 107.578C45.4689 108.197 42.8793 108.499 40.2822 108.479C30.8132 108.479 22.1333 104.529 17.9196 98.0586C12.2618 89.4398 10.3365 71.1672 28.9904 57.6504C29.3692 59.7123 30.1425 62.5405 30.6554 64.2153C26.9935 66.9389 23.9961 70.4583 21.8887 74.5089C18.4167 81.3344 18.8033 88.1521 22.9145 94.4562C25.7552 98.7064 30.2529 101.29 36.0369 102.08C43.2613 102.995 50.5902 101.613 56.9871 98.1297C67.0163 92.8525 73.6998 86.5484 78.0714 77.9296C76.8352 76.6507 76.1036 74.9668 76.0119 73.1896C75.9458 71.2824 76.6382 69.427 77.937 68.0303C79.2359 66.6337 81.0352 65.81 82.94 65.74H83.2083C85.061 65.7307 86.8464 66.4348 88.1951 67.7066C89.5437 68.9785 90.3524 70.7207 90.4538 72.5728C90.5551 74.4249 89.9414 76.2452 88.7397 77.657C87.5379 79.0687 85.84 79.9639 83.9974 80.1573L83.9816 80.0467ZM106.605 64.0889C116.239 75.0224 116.5 87.8914 112.775 95.3568C109.303 102.174 100.15 109 87.8402 109C82.0938 108.883 76.4409 107.522 71.2695 105.011C73.0765 103.723 75.641 101.661 77.0535 100.373C81.0414 102.103 85.333 103.021 89.6788 103.075C97.6485 103.075 103.685 99.3463 107.283 92.5286C109.595 88.0257 109.729 82.7485 107.544 77.345C104.862 70.5462 100.089 64.7776 93.9162 60.8736C85.8175 55.408 76.2703 52.4943 66.5034 52.5076H64.1914C63.6523 53.7544 62.7752 54.8252 61.6595 55.5987C60.5439 56.3722 59.2342 56.8175 57.8787 56.8841H57.6341C55.7594 56.8611 53.9675 56.1072 52.639 54.7827C51.3105 53.4582 50.5501 51.6674 50.5193 49.7906C50.4885 47.9138 51.1897 46.0989 52.474 44.7314C53.7582 43.3639 55.5244 42.5515 57.3974 42.4668H57.6578C58.963 42.4677 60.2427 42.8288 61.3563 43.5103C62.4699 44.1918 63.3744 45.1673 63.9705 46.3298H66.03C82.4429 46.3298 96.8515 52.634 106.605 64.0889ZM41.308 82.2587C41.1729 80.9469 41.4903 79.6282 42.2075 78.5221C35.0111 66.0402 31.1604 50.2166 37.0706 33.7452C41.308 21.366 51.9764 13 63.5443 13C75.8856 13 88.7398 23.815 90.2785 44.655C88.3531 44.0151 85.544 43.075 83.8553 42.7274C83.4371 35.9098 77.6847 18.925 64.0573 19.1777C59.1728 19.312 51.9764 21.6267 48.2756 26.3825C43.6978 32.0595 41.0348 39.0429 40.6688 46.3298C39.8014 56.3215 42.1429 66.3294 47.3524 74.896C47.64 74.7908 47.9465 74.7477 48.2519 74.7696H48.5044C50.413 74.735 52.2572 75.4609 53.6312 76.7876C55.0052 78.1143 55.7965 79.9332 55.8311 81.844C55.8656 83.7548 55.1405 85.6011 53.8153 86.9767C52.4902 88.3523 50.6734 89.1445 48.7648 89.1791H48.5044C46.6424 89.1724 44.8548 88.4467 43.5141 87.153C42.1735 85.8594 41.3832 84.0977 41.308 82.235V82.2587Z" fill="#764ABC"/>
</svg>
