<svg width="128" height="128" viewBox="0 0 128 128" fill="none" xmlns="http://www.w3.org/2000/svg">
<rect width="128" height="128" fill="#333333"/>
<g clip-path="url(#clip0_75_62)">
<path d="M103.415 21.6632C102.082 24.8606 100.357 27.8799 98.2788 30.6516C93.8294 26.0508 88.5026 22.3891 82.6133 19.8829C76.724 17.3768 70.392 16.0772 63.9917 16.061C57.5914 16.0448 51.2529 17.3124 45.351 19.7887C39.4491 22.265 34.1038 25.8998 29.6312 30.478C25.1587 35.0562 21.6497 40.4849 19.3118 46.443C16.9739 52.401 15.8547 58.7674 16.0203 65.1656C16.1858 71.5638 17.6329 77.8638 20.2758 83.6929C22.9187 89.5221 26.7038 94.762 31.4072 99.1028L33.1852 100.683C39.9323 106.373 48.1226 110.085 56.8493 111.408C65.5759 112.73 74.4982 111.611 82.6281 108.175C90.758 104.739 97.7783 99.1198 102.912 91.9398C108.045 84.7598 111.091 76.2991 111.712 67.4948C113.094 55.4444 109.44 40.0356 103.415 21.6632ZM38.322 99.498C37.8141 100.122 37.1327 100.582 36.3637 100.819C35.5948 101.055 34.7728 101.059 34.0018 100.829C33.2308 100.599 32.5453 100.145 32.0319 99.5259C31.5185 98.9064 31.2003 98.1485 31.1175 97.3482C31.0347 96.5478 31.191 95.7409 31.5666 95.0294C31.9423 94.3178 32.5204 93.7336 33.228 93.3505C33.9356 92.9675 34.7409 92.8027 35.542 92.8772C36.3432 92.9516 37.1043 93.2619 37.7292 93.7688C38.5484 94.4626 39.0676 95.4463 39.1781 96.5141C39.2886 97.582 38.9818 98.6512 38.322 99.498ZM103.118 85.1756C91.3644 100.881 66.078 95.5468 49.9776 96.3372C49.9776 96.3372 47.1132 96.5348 44.2484 96.9296C44.2484 96.9296 45.3352 96.436 46.718 95.942C58.0772 91.9912 63.4108 91.2008 70.3252 87.6448C83.2648 81.0268 96.2044 66.5072 98.7724 51.4932C93.8336 65.9144 78.82 78.36 65.1888 83.3976C55.8052 86.8548 38.9148 90.2132 38.9148 90.2132L38.2232 89.818C26.7652 84.1876 26.3704 59.2964 47.3104 51.2956C56.4968 47.7396 65.1888 49.7156 75.1652 47.3448C85.734 44.8752 97.9824 36.9732 102.921 26.602C108.452 43.2948 115.169 69.174 103.118 85.1756Z" fill="white"/>
</g>
<defs>
<clipPath id="clip0_75_62">
<rect width="96" height="96" fill="white" transform="translate(16 16)"/>
</clipPath>
</defs>
</svg>
