<svg width="128" height="128" viewBox="0 0 128 128" fill="none" xmlns="http://www.w3.org/2000/svg">
<rect width="128" height="128" fill="#333333"/>
<path d="M30.6037 29.4799C49.5709 11.0707 79.8985 11.5656 98.2729 30.6676C100.347 27.8963 102.126 24.8281 103.41 21.661C109.436 40.0701 113.091 55.51 111.708 67.4859C111.016 77.5812 107.065 87.2807 100.545 95.0006C83.5536 115.191 53.3248 117.765 33.1722 100.741L32.7867 100.397L32.7662 100.384C32.703 100.34 32.6408 100.294 32.5795 100.246C32.3955 100.103 32.2285 99.9469 32.0784 99.7803L32.0243 99.7186L31.394 99.1576C30.7794 98.6297 30.1647 98.1018 29.6194 97.5045L29.4183 97.277C11.0439 78.2741 11.6366 47.8891 30.6037 29.4799ZM37.7164 93.9119C35.9382 92.5263 33.3698 92.7242 31.9868 94.5058C30.7707 96.0723 30.7766 98.251 32.0047 99.6961L32.0243 99.7186L32.7867 100.397L32.8615 100.449C34.5882 101.586 36.9114 101.351 38.2365 99.7432L38.3091 99.6524C39.6921 97.8709 39.3958 95.2976 37.7164 93.9119ZM102.916 26.6097C97.9765 37.0019 85.7269 44.9198 75.1567 47.3942C65.1792 49.7696 56.486 47.7901 47.2988 51.3531C26.3559 59.37 26.751 84.3115 38.2103 89.953L38.9019 90.3489C38.9019 90.3489 47.1792 88.7 55.3646 86.5224L56.0658 86.3345C59.3351 85.4518 62.5515 84.4896 65.1792 83.5197C78.8118 78.472 93.8275 66.0013 98.7668 51.5511C96.1984 66.5951 83.2573 81.1443 70.3162 87.7755C63.4011 91.3386 58.0666 92.1304 46.706 96.0894C45.323 96.5842 44.2364 97.0791 44.2364 97.0791C44.375 97.0599 44.5136 97.0413 44.6519 97.023L44.928 96.9872L45.2026 96.9526C47.7116 96.641 49.966 96.4853 49.966 96.4853C66.0683 95.6935 91.3578 101.038 103.113 85.3012C115.166 69.2674 108.448 43.3363 102.916 26.6097Z" fill="#6DB33F"/>
<path d="M37.7164 93.9119C39.3958 95.2976 39.6921 97.8709 38.3091 99.6524C36.9261 101.434 34.3576 101.632 32.5795 100.246C30.8013 98.8606 30.6037 96.2873 31.9868 94.5058C33.3698 92.7242 35.9382 92.5263 37.7164 93.9119ZM102.916 26.6097C108.448 43.3363 115.166 69.2674 103.113 85.3012C91.3578 101.038 66.0683 95.6935 49.966 96.4853C49.966 96.4853 47.7116 96.641 45.2026 96.9526L44.928 96.9872C44.6984 97.0165 44.4674 97.0472 44.2364 97.0791C44.2364 97.0791 45.323 96.5842 46.706 96.0894C58.0666 92.1304 63.4011 91.3386 70.3162 87.7755C83.2573 81.1443 96.1984 66.5951 98.7668 51.5511C93.8275 66.0013 78.8118 78.472 65.1792 83.5197C55.7944 86.9838 38.9019 90.3489 38.9019 90.3489L38.2103 89.953C26.751 84.3115 26.3559 59.37 47.2988 51.3531C56.486 47.7901 65.1792 49.7696 75.1567 47.3942C85.7269 44.9198 97.9765 37.0019 102.916 26.6097Z" fill="white"/>
</svg>
