<svg width="128" height="128" viewBox="0 0 128 128" fill="none" xmlns="http://www.w3.org/2000/svg">
<rect width="128" height="128" fill="#333333"/>
<g clip-path="url(#clip0_61_115)">
<path d="M103.339 20.9823C101.994 24.2078 100.273 27.263 98.2112 30.0843C89.1767 21.055 76.9268 15.9821 64.1538 15.9805C37.738 15.9805 16 37.7365 16 64.1815C15.9997 70.7118 17.3254 77.1742 19.8967 83.1769C22.468 89.1797 26.2314 94.5978 30.9587 99.103L32.7347 100.678C41.4145 107.996 52.4002 112.013 63.7533 112.02C88.8685 112.02 109.981 92.3395 111.769 67.2573C113.082 54.979 109.481 39.4495 103.339 20.9823ZM37.8002 99.3775C37.4136 99.8539 36.9256 100.238 36.3717 100.502C35.8178 100.766 35.212 100.903 34.5985 100.903C32.335 100.903 30.4833 99.04 30.4833 96.7765C30.4833 94.5138 32.347 92.6508 34.5985 92.6508C35.536 92.6508 36.4622 92.9755 37.1875 93.5763C38.9508 95.0013 39.226 97.6143 37.8002 99.3775ZM103.139 84.949C91.2572 100.791 65.8795 95.4513 49.6075 96.214C49.6075 96.214 46.7185 96.3895 43.8168 96.8643C43.8168 96.8643 44.9042 96.4015 46.318 95.8638C57.7375 91.888 63.1405 91.1125 70.0818 87.5493C83.152 80.8975 96.0722 66.3438 98.7617 51.202C93.784 65.7685 78.6993 78.2845 64.954 83.3733C55.5363 86.8495 38.5255 90.2253 38.5255 90.2253L37.8378 89.8623C26.2563 84.2238 25.9052 59.1295 46.9555 51.0273C56.1737 47.476 64.9915 49.4268 74.9478 47.0508C85.579 44.5255 97.8737 36.5478 102.876 26.1453C108.479 42.7878 115.222 68.8443 103.139 84.949Z" fill="#77BC1F"/>
</g>
<defs>
<clipPath id="clip0_61_115">
<rect width="96" height="96" fill="white" transform="translate(16 16)"/>
</clipPath>
</defs>
</svg>
