<svg width="128" height="128" viewBox="0 0 128 128" fill="none" xmlns="http://www.w3.org/2000/svg">
<rect width="128" height="128" fill="#333333"/>
<g clip-path="url(#clip0_1_60)">
<path d="M64.0043 32.8C50.1377 32.8 41.471 39.7333 38.0043 53.6C43.2043 46.6667 49.271 44.0667 56.2043 45.8C60.1607 46.788 62.986 49.6567 66.119 52.8373C71.2193 58.0113 77.117 64 90.0043 64C103.871 64 112.538 57.0667 116.004 43.2C110.804 50.1333 104.738 52.7333 97.8043 51C93.848 50.012 91.0227 47.1433 87.8897 43.9627C82.7937 38.7887 76.896 32.8 64.0043 32.8ZM38.0043 64C24.1377 64 15.471 70.9333 12.0043 84.8C17.2043 77.8667 23.271 75.2667 30.2043 77C34.1607 77.988 36.986 80.8567 40.119 84.0373C45.2193 89.2113 51.117 95.2 64.0043 95.2C77.871 95.2 86.5377 88.2667 90.0043 74.4C84.8043 81.3333 78.7377 83.9333 71.8043 82.2C67.848 81.212 65.0227 78.3433 61.8897 75.1627C56.7937 69.9887 50.896 64 38.0043 64Z" fill="white"/>
</g>
<defs>
<clipPath id="clip0_1_60">
<rect width="104" height="104" fill="white" transform="translate(12 12)"/>
</clipPath>
</defs>
</svg>
