<svg width="128" height="128" viewBox="0 0 128 128" fill="none" xmlns="http://www.w3.org/2000/svg">
<rect width="128" height="128" fill="#333333"/>
<g clip-path="url(#clip0_1_72)">
<path d="M20.5 16C18.008 16 16 18.008 16 20.5V107.5C16 109.992 18.008 112 20.5 112H107.5C109.992 112 112 109.992 112 107.5V20.5C112 18.008 109.992 16 107.5 16H20.5ZM89.952 55C92.4 55 94.568 55.148 96.46 55.444C98.2445 55.7114 99.9956 56.1673 101.684 56.804V66.636C100.874 66.0755 100.012 65.5921 99.112 65.192C98.1833 64.7741 97.2247 64.4265 96.244 64.152C94.3864 63.6344 92.4683 63.3654 90.54 63.352C89.34 63.352 88.248 63.464 87.264 63.696C86.387 63.8836 85.5457 64.2104 84.772 64.664C84.092 65.08 83.572 65.58 83.2 66.16C82.8258 66.7446 82.6312 67.426 82.64 68.12C82.64 68.904 82.852 69.612 83.264 70.236C83.68 70.86 84.272 71.452 85.036 72.012C85.8 72.572 86.728 73.116 87.82 73.652C88.912 74.192 90.148 74.748 91.524 75.316C93.404 76.104 95.092 76.944 96.588 77.828C98.084 78.716 99.368 79.72 100.44 80.84C101.512 81.956 102.328 83.232 102.896 84.668C103.464 86.104 103.752 87.772 103.752 89.68C103.752 92.308 103.252 94.52 102.26 96.304C101.291 98.0635 99.8998 99.5548 98.212 100.644C96.3928 101.798 94.3764 102.606 92.264 103.028C90 103.508 87.612 103.748 85.104 103.748C82.6356 103.759 80.1716 103.539 77.744 103.092C75.6437 102.729 73.6068 102.065 71.696 101.12V90.6C75.3111 93.6765 79.8971 95.3766 84.644 95.4C85.976 95.4 87.14 95.28 88.132 95.04C89.128 94.8 89.956 94.464 90.624 94.04C91.288 93.608 91.784 93.104 92.116 92.52C92.4829 91.84 92.6499 91.0701 92.5975 90.2992C92.5451 89.5284 92.2756 88.7881 91.82 88.164C91.2257 87.3776 90.4988 86.7008 89.672 86.164C88.6466 85.4843 87.567 84.8903 86.444 84.388C85.113 83.7801 83.77 83.1987 82.416 82.644C78.744 81.112 76.008 79.236 74.204 77.024C72.404 74.812 71.5 72.136 71.5 69.004C71.5 66.548 71.992 64.44 72.976 62.676C73.96 60.912 75.296 59.46 76.992 58.32C78.7858 57.1366 80.7774 56.2844 82.872 55.804C85.1919 55.257 87.5685 54.9871 89.952 55ZM29.5 55.752H67.752V64.416H54.024V103H43.156V64.416H29.5V55.752Z" fill="white"/>
</g>
<defs>
<clipPath id="clip0_1_72">
<rect width="96" height="96" fill="white" transform="translate(16 16)"/>
</clipPath>
</defs>
</svg>
