<svg width="128" height="128" viewBox="0 0 128 128" fill="none" xmlns="http://www.w3.org/2000/svg">
<rect width="128" height="128" fill="#333333"/>
<path d="M71.541 16.5627C71.31 16.5621 71.0804 16.5989 70.8611 16.6715C70.4206 16.8175 70.0395 17.1028 69.7754 17.4845L44.9122 53.4335C44.7134 53.7212 44.5887 54.0536 44.5494 54.4011C44.5098 54.7484 44.5569 55.1002 44.6865 55.425C44.8163 55.7497 45.0245 56.0373 45.2925 56.2621C45.5609 56.4877 45.8807 56.6437 46.2237 56.7163L62.2867 60.1227L61.2924 79.9697C61.2692 80.4317 61.398 80.8886 61.6592 81.2704C61.921 81.6529 62.3002 81.9397 62.7396 82.0874C63.1797 82.2347 63.6571 82.2367 64.0981 82.0902C64.5386 81.9441 64.9196 81.6588 65.1838 81.2772L90.0457 45.3281C90.2452 45.0407 90.3703 44.7083 90.4098 44.3606C90.4488 44.0133 90.4029 43.6614 90.2728 43.3367C90.1431 43.0119 89.9349 42.7242 89.6668 42.4996C89.3983 42.2741 89.0785 42.1181 88.7355 42.0454L72.6725 38.639L73.6668 18.792C73.6901 18.3299 73.5612 17.873 73.3 17.4912C73.0384 17.1086 72.6591 16.8217 72.2196 16.6743C72.0009 16.6008 71.7718 16.5631 71.541 16.5627ZM17.0135 54.4144C15.6855 54.4196 14.4131 54.9508 13.4741 55.8899C12.5352 56.8285 12.0053 58.1003 12 59.4279C11.9947 60.7561 12.5144 62.0326 13.4459 62.9794L60.4297 109.962C60.8966 110.43 61.4514 110.801 62.0623 111.054C62.6731 111.308 63.328 111.438 63.9893 111.437C63.9929 111.437 63.9962 111.436 64.0001 111.436C64.0032 111.436 64.0062 111.437 64.0096 111.437C64.6709 111.438 65.3257 111.308 65.9365 111.054C66.5474 110.801 67.1023 110.43 67.5692 109.962L114.553 62.9795C115.484 62.0327 116.005 60.7563 116 59.4279C115.994 58.0999 115.464 56.829 114.525 55.8899C113.586 54.9503 112.313 54.42 110.985 54.4144C109.657 54.4091 108.381 54.9288 107.435 55.8603L84.0298 79.2642C83.996 79.2963 83.9554 79.3186 83.9222 79.3515L64 99.2738L44.0764 79.3515C44.0443 79.3195 44.0045 79.2979 43.9715 79.2668L20.565 55.8603C19.6182 54.9288 18.3417 54.4091 17.0135 54.4144Z" fill="white"/>
</svg>
