<svg width="128" height="128" viewBox="0 0 128 128" fill="none" xmlns="http://www.w3.org/2000/svg">
<rect width="128" height="128" fill="#333333"/>
<path d="M16 96.336C16.172 98.456 16.92 100.588 18.872 103.448C21.192 106.844 25.176 108.708 28.084 105.716C30.044 103.696 51.26 66.612 61.484 52.556C61.7645 52.1541 62.1379 51.826 62.5725 51.5993C63.0071 51.3727 63.4899 51.2544 63.98 51.2544C64.4701 51.2544 64.9529 51.3727 65.3875 51.5993C65.8221 51.826 66.1955 52.1541 66.476 52.556C76.7 66.612 97.916 103.696 99.876 105.716C102.784 108.708 106.768 106.844 109.088 103.448C111.368 100.108 112 97.768 112 95.264C112 93.56 78.96 32.072 75.632 26.952C72.432 22.032 71.456 20.96 66.044 20.784H61.916C56.504 20.96 55.528 22.028 52.324 26.952C49.068 31.964 17.32 91.032 16 95.08V96.336Z" fill="white"/>
</svg>
