<svg width="128" height="128" viewBox="0 0 128 128" fill="none" xmlns="http://www.w3.org/2000/svg">
<rect width="128" height="128" fill="#333333"/>
<g clip-path="url(#clip0_51_18)">
<path d="M72.524 16.188C71.832 16.188 71.188 16.336 70.592 16.536C71.856 17.376 72.552 18.496 72.896 19.76C72.924 19.932 72.972 20.056 72.996 20.228C73.0257 20.3756 73.0431 20.5255 73.048 20.676C73.144 22.856 72.476 23.132 72.008 24.42C71.288 26.08 71.488 27.864 72.352 29.3C72.4311 29.4926 72.5304 29.6763 72.648 29.848C71.708 23.576 76.94 22.636 77.904 20.676C77.98 18.964 76.568 17.824 75.452 17.032C74.575 16.4809 73.5598 16.1897 72.524 16.192V16.188ZM80.408 17.6C80.312 18.172 80.384 18.024 80.36 18.32C80.336 18.52 80.336 18.768 80.312 18.964C80.26 19.164 80.212 19.364 80.136 19.56C80.088 19.76 80.016 19.96 79.936 20.156L79.668 20.724C79.588 20.824 79.544 20.924 79.468 21.024L79.32 21.244C79.202 21.4137 79.0779 21.5792 78.948 21.74C78.8 21.892 78.676 22.064 78.5 22.188V22.212C78.352 22.336 78.204 22.484 78.028 22.612C77.508 23.008 76.916 23.304 76.368 23.676C76.196 23.796 76.02 23.9 75.872 24.048C75.7037 24.1664 75.5458 24.2988 75.4 24.444C75.228 24.592 75.104 24.74 74.956 24.916C74.832 25.064 74.684 25.236 74.584 25.412C74.4595 25.5795 74.3434 25.753 74.236 25.932C74.136 26.132 74.064 26.304 73.964 26.5C73.888 26.7 73.816 26.872 73.764 27.072C73.6984 27.2763 73.6411 27.4831 73.592 27.692C73.568 27.792 73.568 27.916 73.544 28.012C73.516 28.112 73.516 28.212 73.492 28.312C73.492 28.512 73.468 28.732 73.468 28.932C73.468 29.08 73.468 29.228 73.492 29.376C73.492 29.576 73.516 29.776 73.568 29.996C73.592 30.196 73.64 30.396 73.688 30.596C73.768 30.792 73.816 30.988 73.888 31.188C73.94 31.308 74.012 31.436 74.064 31.536L68.36 29.328C67.396 29.056 66.452 28.808 65.484 28.584L63.924 28.212C62.436 27.916 60.924 27.692 59.412 27.544C59.36 27.544 59.336 27.52 59.288 27.52C56.7331 27.2641 54.1608 27.2306 51.6 27.42C50.088 27.52 48.576 27.716 47.064 27.964C45.9404 28.1576 44.8237 28.3897 43.716 28.66L42.6 28.956C42.232 29.104 41.88 29.276 41.536 29.428L40.716 29.8C40.668 29.824 40.62 29.824 40.596 29.848C40.344 29.972 40.124 30.072 39.9 30.196C39.578 30.3381 39.2629 30.4956 38.956 30.668C38.784 30.74 38.612 30.84 38.46 30.916C38.389 30.9601 38.3155 31.0001 38.24 31.036C38.016 31.164 37.792 31.288 37.592 31.412C37.3879 31.5248 37.1903 31.649 37 31.784C36.824 31.904 36.652 32.004 36.504 32.128C36.48 32.156 36.452 32.156 36.428 32.18C36.28 32.28 36.108 32.404 35.956 32.528L35.908 32.576L35.536 32.872C35.488 32.9 35.436 32.948 35.388 32.972C35.264 33.072 35.14 33.196 35.016 33.292C34.992 33.344 34.94 33.372 34.916 33.392C34.768 33.544 34.62 33.668 34.472 33.816C34.444 33.816 34.444 33.84 34.42 33.864C34.2659 33.9987 34.1177 34.1402 33.976 34.288C33.948 34.312 33.948 34.336 33.924 34.336C33.7938 34.4634 33.6697 34.5969 33.552 34.736C33.504 34.784 33.432 34.832 33.38 34.88C33.2472 35.0372 33.1056 35.1867 32.956 35.328C32.932 35.376 32.884 35.404 32.86 35.448C32.66 35.648 32.488 35.848 32.288 36.048L32.216 36.12C31.816 36.544 31.396 36.964 30.948 37.336C30.504 37.736 30.032 38.104 29.56 38.428C28.6123 39.1049 27.5895 39.67 26.512 40.112C25.992 40.336 25.444 40.536 24.9 40.708C23.86 40.932 22.792 41.352 21.876 41.428C21.676 41.428 21.456 41.476 21.256 41.5L20.636 41.648L20.04 41.872C19.84 41.948 19.644 42.048 19.448 42.144C19.272 42.268 19.076 42.368 18.9 42.492C18.7235 42.6197 18.5577 42.7615 18.404 42.916C18.232 43.036 18.056 43.212 17.908 43.36C17.76 43.532 17.612 43.68 17.488 43.856C17.364 44.056 17.216 44.228 17.116 44.428C16.9857 44.6082 16.8694 44.7981 16.768 44.996C16.668 45.22 16.568 45.42 16.496 45.64C16.42 45.84 16.348 46.064 16.272 46.284C16.224 46.484 16.172 46.684 16.152 46.884C16.152 46.904 16.124 46.932 16.124 46.956C16.076 47.18 16.076 47.476 16.048 47.624C16.024 47.8 16 47.944 16 48.12C15.9954 48.5514 16.0971 48.9772 16.296 49.36V49.384C16.372 49.532 16.472 49.684 16.572 49.832C16.668 49.98 16.772 50.128 16.892 50.276C17.016 50.4 17.164 50.552 17.316 50.676C17.4606 50.821 17.6171 50.9535 17.784 51.072C18.38 51.592 18.528 51.764 19.296 52.16C19.42 52.236 19.544 52.284 19.696 52.36C19.72 52.36 19.744 52.384 19.768 52.384C19.768 52.436 19.768 52.46 19.792 52.508C19.8499 52.9168 19.9574 53.3171 20.112 53.7C20.192 53.848 20.24 53.996 20.312 54.144C20.34 54.196 20.364 54.244 20.392 54.268C20.488 54.468 20.588 54.64 20.684 54.816L21.056 55.336C21.18 55.484 21.332 55.656 21.48 55.808C21.628 55.956 21.776 56.08 21.952 56.228C21.952 56.228 21.976 56.252 22 56.252C22.148 56.376 22.296 56.5 22.448 56.6C22.6205 56.721 22.8024 56.828 22.992 56.92C23.164 57.02 23.364 57.12 23.56 57.196C23.7199 57.2681 23.8859 57.3257 24.056 57.368C24.084 57.392 24.108 57.392 24.156 57.416C24.256 57.444 24.38 57.468 24.476 57.492C24.404 58.832 24.38 60.092 24.58 60.54C24.8 61.036 25.892 59.524 26.98 57.788C26.836 59.5 26.736 61.508 26.98 62.104C27.256 62.724 28.74 60.788 30.032 58.656C47.612 54.592 63.652 66.736 65.336 83.896C65.016 81.216 61.716 79.732 60.204 80.104C59.46 81.936 58.196 84.292 56.164 85.756C56.336 84.116 56.264 82.436 55.916 80.796C55.3608 83.0788 54.3107 85.2118 52.84 87.044C50.488 87.216 48.132 86.076 46.892 84.364C46.792 84.292 46.768 84.144 46.692 84.044C46.62 83.872 46.544 83.696 46.492 83.524C46.4201 83.3579 46.3703 83.1831 46.344 83.004C46.32 82.828 46.32 82.656 46.32 82.456V82.084C46.3496 81.9081 46.3911 81.7343 46.444 81.564C46.496 81.392 46.544 81.22 46.62 81.044C46.716 80.872 46.792 80.696 46.916 80.524C47.336 79.332 47.336 78.364 46.568 77.796C46.4189 77.6986 46.2608 77.6156 46.096 77.548C46 77.524 45.876 77.476 45.776 77.448L45.576 77.376C45.4062 77.321 45.2324 77.2796 45.056 77.252C44.8871 77.2025 44.7121 77.177 44.536 77.176C44.356 77.1477 44.1742 77.1317 43.992 77.128C43.868 77.128 43.744 77.152 43.62 77.152C43.4347 77.151 43.2501 77.1766 43.072 77.228C42.9 77.252 42.728 77.276 42.552 77.324C42.3751 77.3715 42.2014 77.4302 42.032 77.5C41.86 77.572 41.712 77.648 41.536 77.724C41.388 77.796 41.24 77.896 41.064 77.972C35.288 81.74 38.736 90.564 42.676 93.12C41.188 93.392 39.676 93.712 39.256 94.036L39.204 94.084C40.272 94.728 41.388 95.276 42.552 95.748C44.14 96.268 45.824 96.736 46.568 96.936V96.96C48.6222 97.3818 50.7227 97.5324 52.816 97.408C63.8 96.64 72.8 88.284 74.436 77.276L74.584 77.92C74.66 78.368 74.756 78.84 74.808 79.308V79.332C74.856 79.556 74.88 79.78 74.908 79.98V80.076C74.932 80.3 74.956 80.524 74.956 80.724C74.98 80.996 75.004 81.268 75.004 81.54V81.94C75.004 82.06 75.032 82.208 75.032 82.332C75.032 82.484 75.004 82.632 75.004 82.78V83.128C75.004 83.3 74.98 83.448 74.98 83.624C74.98 83.724 74.98 83.824 74.956 83.944C74.956 84.12 74.932 84.292 74.932 84.492C74.908 84.564 74.908 84.64 74.908 84.712L74.828 85.284C74.828 85.36 74.828 85.432 74.808 85.508C74.78 85.756 74.732 85.98 74.708 86.228V86.276L74.56 86.972V87.044L74.412 87.712C74.412 87.74 74.384 87.792 74.384 87.812C74.3384 88.0388 74.281 88.2631 74.212 88.484V88.556C74.136 88.804 74.064 89.028 74.012 89.252C73.988 89.276 73.988 89.3 73.988 89.3L73.764 90.044C73.668 90.292 73.592 90.516 73.492 90.764C73.392 91.012 73.32 91.26 73.22 91.484C73.12 91.732 73.02 91.952 72.924 92.204H72.896C72.8 92.424 72.696 92.672 72.576 92.896C72.5552 92.9552 72.5298 93.0127 72.5 93.068C72.476 93.092 72.476 93.12 72.452 93.144C70.8124 96.4266 68.4258 99.2789 65.484 101.472C65.284 101.596 65.088 101.748 64.888 101.896C64.84 101.944 64.768 101.968 64.716 102.016C64.5387 102.147 64.3573 102.272 64.172 102.392L64.244 102.54H64.272L65.312 102.392H65.336C65.98 102.292 66.624 102.168 67.268 102.044C67.444 102.02 67.64 101.968 67.816 101.92L68.164 101.844C68.336 101.82 68.508 101.772 68.684 101.748C68.832 101.696 68.98 101.668 69.128 101.624C71.608 101.024 74.012 100.208 76.32 99.244C72.3354 104.671 67.036 108.996 60.92 111.812C63.776 111.612 66.624 111.144 69.376 110.348C79.3369 107.419 87.7498 100.697 92.804 91.628C91.7832 97.369 89.5063 102.814 86.136 107.572C88.5389 105.987 90.7591 104.141 92.756 102.068C98.3055 96.2744 101.949 88.921 103.196 80.996C104.036 84.916 104.284 88.956 103.916 92.944C121.812 67.98 105.4 42.096 98.532 35.28C98.508 35.228 98.484 35.204 98.484 35.156C98.46 35.18 98.46 35.18 98.46 35.204C98.46 35.18 98.46 35.18 98.432 35.156C98.432 35.452 98.408 35.748 98.384 36.048C98.3153 36.6033 98.2326 37.1568 98.136 37.708C98.016 38.252 97.864 38.8 97.716 39.348C97.54 39.868 97.344 40.412 97.116 40.932C96.8894 41.4456 96.6425 41.95 96.376 42.444C95.8225 43.4159 95.184 44.3368 94.468 45.196C94.096 45.64 93.7 46.036 93.3 46.436C93.0662 46.6498 92.8261 46.8565 92.58 47.056L92.012 47.552C91.5694 47.9013 91.1059 48.2232 90.624 48.516C90.1502 48.8212 89.6616 49.1029 89.16 49.36C88.64 49.608 88.12 49.832 87.6 50.056C86.5409 50.4588 85.4451 50.7576 84.328 50.948C83.756 51.048 83.188 51.096 82.64 51.148C82.2446 51.176 81.8484 51.192 81.452 51.196C80.8881 51.1882 80.3249 51.1549 79.764 51.096C79.1977 51.0515 78.6351 50.9687 78.08 50.848C77.5178 50.746 76.9631 50.6056 76.42 50.428H76.392C76.94 50.376 77.484 50.328 78.032 50.228C79.1484 50.0345 80.2439 49.7358 81.304 49.336C81.848 49.136 82.368 48.888 82.864 48.64C83.384 48.392 83.856 48.12 84.352 47.824C84.824 47.504 85.292 47.18 85.74 46.832C86.188 46.484 86.608 46.112 87.004 45.716C87.424 45.344 87.796 44.924 88.168 44.5C88.54 44.056 88.888 43.608 89.208 43.164C89.26 43.088 89.312 42.988 89.36 42.916C89.608 42.516 89.856 42.12 90.08 41.724C90.6266 40.7373 91.0741 39.6989 91.416 38.624C91.592 38.104 91.716 37.56 91.84 37.012C91.94 36.444 92.04 35.9 92.088 35.352C92.136 34.784 92.188 34.212 92.188 33.668C92.188 33.268 92.16 32.872 92.136 32.476C92.0866 31.9207 92.0199 31.3671 91.936 30.816C91.8396 30.2572 91.7168 29.7032 91.568 29.156C91.392 28.636 91.22 28.088 91.02 27.568C90.82 27.048 90.576 26.528 90.328 26.032C90.052 25.536 89.78 25.04 89.484 24.568C89.1674 24.1046 88.8366 23.6511 88.492 23.208C88.12 22.784 87.748 22.36 87.352 21.94C87.1434 21.7272 86.9286 21.5204 86.708 21.32C85.588 20.452 84.428 19.636 83.26 18.892C83.0998 18.7995 82.9342 18.7167 82.764 18.644C82.0286 18.1937 81.2363 17.84 80.408 17.6Z" fill="white"/>
</g>
<defs>
<clipPath id="clip0_51_18">
<rect width="96" height="96" fill="white" transform="translate(16 16)"/>
</clipPath>
</defs>
</svg>
