<svg width="128" height="128" viewBox="0 0 128 128" fill="none" xmlns="http://www.w3.org/2000/svg">
<rect width="128" height="128" fill="#333333"/>
<path d="M73.6633 64.0173C73.6633 66.5864 72.6431 69.0502 70.8269 70.8672C69.0108 72.6842 66.5474 73.7055 63.9783 73.7067C61.4086 73.7067 58.944 72.6858 57.1269 70.8687C55.3098 69.0516 54.289 66.5871 54.289 64.0173C54.289 61.4483 55.3092 58.9845 57.1254 57.1675C58.9416 55.3505 61.405 54.3291 63.974 54.328C66.5438 54.328 69.0083 55.3488 70.8254 57.1659C72.6425 58.983 73.6633 61.4476 73.6633 64.0173ZM85.138 17.694C79.3053 17.694 71.6743 21.854 63.9567 29.056C56.2433 21.893 48.608 17.7807 42.7797 17.7807C41.003 17.7807 39.3867 18.1837 37.987 18.9853C32.0287 22.4217 30.694 33.1293 33.7707 46.567C20.58 50.6403 12 57.1533 12 64.0173C12 70.9073 20.6233 77.4377 33.853 81.4807C30.8023 94.9703 32.163 105.695 38.1343 109.127C39.521 109.938 41.1243 110.319 42.9097 110.319C48.738 110.319 56.3733 106.159 64.091 98.9483C71.8043 106.116 79.4397 110.228 85.268 110.228C87.0447 110.228 88.661 109.838 90.0607 109.036C96.0147 105.604 97.3537 94.8967 94.277 81.4547C107.42 77.416 116 70.89 116 64.0173C116 57.1273 107.377 50.597 94.147 46.5453C97.1977 33.0687 95.837 22.335 89.8657 18.8987C88.4877 18.1013 86.8887 17.6983 85.138 17.694ZM85.1163 22.4173V22.4433C86.0913 22.4433 86.8757 22.634 87.5343 22.9937C90.4203 24.649 91.6727 30.9453 90.6977 39.0443C90.4637 41.0377 90.0823 43.1393 89.6143 45.2843C85.4543 44.2617 80.9217 43.4773 76.1507 42.9703C73.2907 39.0487 70.3223 35.4867 67.3323 32.3667C74.231 25.9533 80.7093 22.4347 85.1207 22.4217L85.1163 22.4173ZM42.7797 22.504C47.165 22.504 53.6737 26.0053 60.5897 32.384C57.617 35.504 54.653 39.0443 51.8363 42.966C47.0393 43.473 42.5023 44.2573 38.3467 45.2973C37.8613 43.174 37.5017 41.12 37.246 39.144C36.2493 31.0493 37.48 24.7573 40.34 23.0803C41.1633 22.6903 42.0733 22.5257 42.7797 22.504ZM63.935 35.7207C65.9067 37.7487 67.8783 40.0193 69.8283 42.498C67.9217 42.4113 65.9717 42.3507 64 42.3507C62.0067 42.3507 60.035 42.394 58.1067 42.498C60.0133 40.0193 61.985 37.753 63.935 35.7207ZM64 47.1C67.2067 47.1 70.4003 47.2473 73.542 47.503C75.3013 50.025 77.0173 52.716 78.6683 55.563C80.2803 58.3363 81.745 61.153 83.0797 63.9957C81.745 66.834 80.2803 69.6723 78.69 72.4457C77.0433 75.3057 75.3403 78.027 73.5767 80.549C70.422 80.822 67.224 80.9737 64 80.9737C60.7933 80.9737 57.5997 80.822 54.458 80.5707C52.6987 78.0487 50.9827 75.3533 49.3317 72.5107C47.7197 69.7373 46.255 66.9207 44.9203 64.078C46.2333 61.231 47.7197 58.3883 49.31 55.6107C50.9567 52.7507 52.6597 50.038 54.4233 47.516C57.578 47.2387 60.776 47.0913 64 47.0913V47.1ZM48.2483 48.2007C47.2083 49.8343 46.1683 51.507 45.1977 53.2273C44.2227 54.9173 43.3127 56.616 42.446 58.3147C41.2977 55.472 40.3227 52.638 39.5167 49.8777C42.29 49.2277 45.215 48.647 48.2483 48.2007ZM79.7083 48.2007C82.72 48.647 85.6233 49.1973 88.401 49.8777C87.621 52.6163 86.646 55.433 85.541 58.254C84.6743 56.564 83.7643 54.861 82.7677 53.1667C81.7927 51.468 80.7527 49.8127 79.7127 48.2007H79.7083ZM92.9813 51.1257C95.0787 51.7757 97.072 52.4993 98.9397 53.2837C106.445 56.4903 111.298 60.685 111.298 64.013C111.277 67.341 106.423 71.553 98.918 74.738C97.098 75.518 95.1047 76.22 93.0463 76.8743C91.833 72.723 90.247 68.3983 88.2797 63.961C90.2297 59.554 91.7897 55.251 92.9813 51.117V51.1257ZM34.9363 51.143C36.141 55.303 37.7313 59.6233 39.703 64.0563C37.753 68.4633 36.1843 72.7663 34.997 76.9003C32.8997 76.2503 30.9063 75.5223 29.0603 74.7337C21.555 71.54 16.7017 67.341 16.7017 64.013C16.7017 60.685 21.555 56.4643 29.0603 53.2837C30.8803 52.5037 32.8737 51.8017 34.9363 51.143ZM85.541 69.6897C86.6893 72.5367 87.6643 75.375 88.4703 78.131C85.697 78.8113 82.7677 79.3877 79.7343 79.821C80.7743 78.196 81.8143 76.519 82.7893 74.803C83.7643 73.113 84.67 71.3883 85.541 69.6897ZM42.446 69.7763C43.3127 71.475 44.2227 73.1693 45.2193 74.868C46.216 76.558 47.2343 78.2133 48.2743 79.821C45.2627 79.379 42.3593 78.8243 39.5817 78.1483C40.3617 75.4183 41.341 72.593 42.4417 69.772L42.446 69.7763ZM89.6533 82.72C90.1387 84.8563 90.52 86.9147 90.754 88.8863C91.7507 96.981 90.52 103.273 87.66 104.954C87.023 105.344 86.1953 105.509 85.2203 105.509C80.835 105.509 74.3263 102.012 67.4103 95.629C70.383 92.509 73.347 88.973 76.1637 85.0557C80.9607 84.5443 85.4977 83.76 89.6533 82.72ZM38.39 82.7633C42.55 83.7773 47.0827 84.5617 51.8537 85.0687C54.7137 88.9903 57.682 92.5523 60.672 95.668C53.7603 102.094 47.2733 105.613 42.862 105.613C41.9087 105.591 41.1027 105.396 40.4657 105.041C37.5797 103.394 36.3273 97.0937 37.3023 88.9947C37.5363 87.0013 37.922 84.904 38.39 82.7633ZM58.15 85.5367C60.0567 85.6233 62.0067 85.684 63.9783 85.684C65.9717 85.684 67.9433 85.6407 69.8717 85.5367C67.965 88.0153 65.9933 90.2817 64.0433 92.3183C62.0717 90.2817 60.1 88.0153 58.15 85.5367Z" fill="white"/>
</svg>
